<?xml version="1.0" standalone="no"?>
<!DOCTYPE svg PUBLIC "-//W3C//DTD SVG 1.1//EN" "http://www.w3.org/Graphics/SVG/1.1/DTD/svg11.dtd" >
<svg xmlns="http://www.w3.org/2000/svg">
<metadata>
This is a custom SVG font generated by IcoMoon.
<iconset grid="16"></iconset>
</metadata>
<defs>
<font id="three-q-digital-icons" horiz-adv-x="512" >
<font-face units-per-em="512" ascent="480" descent="-32" />
<missing-glyph horiz-adv-x="512" />
<glyph class="hidden" unicode="&#xf000;" d="M0,480L 512 -32L0 -32 z" horiz-adv-x="0" />
<glyph unicode="&#x71;" d="M 322.56,311.040l-128,0 l0-179.2 l 128,0 L 322.56,311.040 z M 236.8,247.040c-10.6,0-19.2,8.6-19.2,19.2
		s 8.6,19.2, 19.2,19.2c 10.6,0, 19.2-8.592, 19.2-19.2S 247.4,247.040, 236.8,247.040z M 296.96,157.44l-38.4,0 l0,38.4 l 38.4,0 L 296.96,157.44 zM 256,480C 114.616,480,0,365.384,0,224c0-141.384, 114.616-256, 256-256c 141.384,0, 256,114.616, 256,256
		C 512,365.384, 397.384,480, 256,480z M 348.16,106.24l-179.2,0 l0,230.4 l 179.2,0 L 348.16,106.24 z"  />
<glyph unicode="&#x69;" d="M 153.728,226.56L 248.32,226.56 L 248.32,323.52 C 197.12,319.704, 156.28,278.096, 153.728,226.56zM 248.32,119.36L 248.32,211.2 L 154.112,211.2 C 159.016,162.048, 198.824,123.048, 248.32,119.36zM 263.68,119.36c 49.496,3.688, 89.304,42.688, 94.208,91.84L 263.68,211.2 L 263.68,119.36 zM 263.68,323.52l0-96.96 l 94.592,0 C 355.72,278.096, 314.88,319.704, 263.68,323.52zM 256,480C 114.616,480,0,365.384,0,224s 114.616-256, 256-256s 256,114.616, 256,256S 397.384,480, 256,480z
		 M 256,93.44c-70.696,0-128,57.304-128,128s 57.304,128, 128,128c 70.696,0, 128-57.304, 128-128S 326.696,93.44, 256,93.44z"  />
<glyph unicode="&#x76;" d="M 256,480C 114.616,480,0,365.384,0,224s 114.616-256, 256-256c 141.384,0, 256,114.616, 256,256
		S 397.384,480, 256,480z M 209.92,88.32l0,256 l 140.8-128L 209.92,88.32zM 235.52,286.448L 235.52,146.192L 312.664,216.32 	z"  />
<glyph unicode="&#x73;" d="M 256,480C 114.616,480,0,365.384,0,224c0-141.384, 114.616-256, 256-256c 141.384,0, 256,114.616, 256,256
	C 512,365.384, 397.384,480, 256,480z M 215.040,121.6l-25.6,0 L 189.44,224 l 25.6,0 L 215.040,121.6 z M 266.24,121.6l-25.6,0 L 240.64,275.2 l 25.6,0 L 266.24,121.6 z M 317.44,121.6l-25.6,0 L 291.84,326.4 l 25.6,0 L 317.44,121.6 z"  />
<glyph unicode="&#x6f;" d="M 256,480C 114.616,480,0,365.384,0,224c0-141.384, 114.616-256, 256-256c 141.384,0, 256,114.616, 256,256
		C 512,365.384, 397.384,480, 256,480z M 355.84,144.64l-58.88,0 l0-30.72 l-35.448,30.72L 151.040,144.64 l0,153.6 l 204.8,0 L 355.84,144.64 zM 176.64,272.64L 330.24,272.64L 330.24,170.24L 176.64,170.24z"  />
<glyph unicode="&#x61;" d="M 256,480C 114.616,480,0,365.384,0,224c0-141.384, 114.616-256, 256-256c 141.384,0, 256,114.616, 256,256
		C 512,365.384, 397.384,480, 256,480z M 281.6,113.92l-51.2,0 l0,15.36 l 51.2,0 L 281.6,113.92 z M 371.2,144.64L 140.8,144.64 l0,153.6 l 230.4,0 L 371.2,144.64 zM 166.4,272.64L 345.6,272.64L 345.6,170.24L 166.4,170.24z"  />
<glyph unicode="&#x72;" d="M 256,298.24c-42.344,0-76.8-34.456-76.8-76.8c0-42.344, 34.456-76.8, 76.8-76.8
		s 76.8,34.456, 76.8,76.8C 332.8,263.784, 298.344,298.24, 256,298.24zM 256,480C 114.616,480,0,365.384,0,224c0-141.384, 114.616-256, 256-256c 141.384,0, 256,114.616, 256,256
		C 512,365.384, 397.384,480, 256,480z M 381.44,78.080l-63.32,61.976C 300.888,126.88, 279.368,119.040, 256,119.040c-56.552,0-102.4,45.848-102.4,102.4
		s 45.848,102.4, 102.4,102.4c 56.552,0, 102.4-45.848, 102.4-102.4c0-23.968-8.256-45.992-22.048-63.44L 399.36,96L 381.44,78.080z"  />
<glyph unicode="&#x6d;" d="M 304.64,311.040l-102.4,0 l0-179.2 l 102.4,0 L 304.64,311.040 z M 253.44,144.64c-7.072,0-12.8,5.728-12.8,12.8
		c0,7.072, 5.728,12.8, 12.8,12.8s 12.8-5.728, 12.8-12.8C 266.24,150.368, 260.512,144.64, 253.44,144.64zM 256,480C 114.616,480,0,365.384,0,224c0-141.384, 114.616-256, 256-256s 256,114.616, 256,256
		C 512,365.384, 397.384,480, 256,480z M 330.24,106.24l-153.6,0 l0,230.4 l 153.6,0 L 330.24,106.24 z"  />
<glyph unicode="&#x21;" d="M 316.576,306.648L 198.056,306.648 L 198.056,140.72 l 118.52,0 L 316.576,306.648 z M 292.872,164.424L 221.76,164.424 l0,14.224 l 71.112,0 
		L 292.872,164.424 z M 292.872,216.568L 221.76,216.568 l0,14.224 l 71.112,0 L 292.872,216.568 z M 292.872,268.72L 221.76,268.72 l0,14.224 l 71.112,0 L 292.872,268.72 zM 256,480C 114.616,480,0,365.384,0,224c0-141.384, 114.616-256, 256-256c 141.384,0, 256,114.616, 256,256
		C 512,365.384, 397.384,480, 256,480z M 340.28,117.016L 174.352,117.016 L 174.352,330.344 l 165.928,0 L 340.28,117.016 z"  />
<glyph unicode="&#x22;" d="M 233.488,142.384l 16.848,0 L 250.336,305.616 l-16.848,0 l0,10.528 l 45.016,0 l0-10.528 l-16.848,0 l0-163.224 l 16.848,0 l0-10.528 l-45.016,0 L 233.488,142.384 zM 506.376,227.456c0,68.376-26.088,132.128-73.464,179.504C 385.872,454, 323.040,479.904, 256,479.904c-67.040,0-129.872-25.904-176.912-72.944
	c-47.376-47.376-73.464-111.12-73.464-179.504c0-70.064, 26.072-135.48, 73.408-184.2c 47.096-48.472, 109.944-75.168, 176.968-75.168
	c 64.584,0, 125.288,24.8, 171.76,69.968l 67.432-69.888L 503.312-24l-67.648,70.104C 481.288,94.52, 506.376,158.752, 506.376,227.456z M 256-20.632
	c-63.952,0-123.928,25.48-168.88,71.744c-45.28,46.608-70.216,109.232-70.216,176.344c0,65.368, 24.92,126.288, 70.16,171.528
	C 131.976,443.896, 191.968,468.632, 256,468.632c 64.032,0, 124.024-24.736, 168.936-69.64c 45.248-45.248, 70.16-106.16, 70.16-171.528
	c0-65.632-23.864-126.968-67.272-173.232l-44.776,46.408l-8.12-7.824l 45-46.632C 375.568,3.048, 317.632-20.632, 256-20.632z"  />
<glyph unicode="&#x23;" d="M 211.216,303.792L 194.48,303.792 l0,10.296 l 100.384,0 c 10.552,0, 14.928-4.376, 14.928-14.928l0-13.64 l-10.808,0 l0,12.616 c0,3.864-2.056,5.664-5.664,5.664
	l-71.040,0 l0-73.872 l 71.816,0 l0-10.296 l-71.816,0 l0-69.752 c0-3.864, 2.056-5.664, 5.664-5.664l 73.104,0 c 3.6,0, 5.664,1.8, 5.664,5.664L 306.712,162.48 l 10.808,0 l0-13.64 
	c0-10.552-4.376-14.928-14.928-14.928l-76.448,0 c-10.552,0-14.928,4.376-14.928,14.928L 211.216,303.792 zM 506.376,227.456c0,68.376-26.088,132.128-73.464,179.504C 385.872,454, 323.040,479.904, 256,479.904c-67.040,0-129.872-25.904-176.912-72.944
	c-47.376-47.376-73.464-111.12-73.464-179.504c0-70.064, 26.072-135.48, 73.408-184.2c 47.096-48.472, 109.944-75.168, 176.968-75.168
	c 64.584,0, 125.288,24.8, 171.76,69.968l 67.432-69.888L 503.312-24l-67.648,70.104C 481.288,94.52, 506.376,158.752, 506.376,227.456z M 256-20.632
	c-63.952,0-123.928,25.48-168.88,71.744c-45.28,46.608-70.216,109.232-70.216,176.344c0,65.368, 24.92,126.288, 70.16,171.528
	C 131.976,443.896, 191.968,468.632, 256,468.632c 64.032,0, 124.024-24.736, 168.936-69.64c 45.248-45.248, 70.16-106.16, 70.16-171.528
	c0-65.632-23.864-126.968-67.272-173.232l-44.776,46.408l-8.12-7.824l 45-46.632C 375.568,3.048, 317.632-20.632, 256-20.632z"  />
<glyph unicode="&#x24;" d="M 247.968,229.264l-42.12,69.24c-3.952,6.32-8.952,7.104-14.216,7.104l-4.472,0 l0,10.528 l 4.472,0 c 13.16,0, 18.432-2.104, 26.328-15.272
	l 26.064-43.44c 5.264-8.952, 12.112-20.536, 12.112-20.536l 0.528,0 c0,0, 5.528,11.584, 11.056,20.536l 26.328,43.44
	c 7.896,13.16, 13.16,15.272, 26.328,15.272l 4.472,0 l0-10.528 l-4.472,0 c-5.264,0-10.264-0.792-14.216-7.104l-42.384-69.24l 59.76-97.408l-13.424,0 
	l-42.648,70.032c-5.528,9.216-11.848,19.744-11.848,19.744l-0.528,0 c0,0-5.528-10.792-11.056-20.008l-42.12-69.768l-13.424,0 L 247.968,229.264zM 506.376,227.456c0,68.376-26.088,132.128-73.464,179.504C 385.872,454, 323.040,479.904, 256,479.904S 126.128,454, 79.088,406.96
	c-47.376-47.376-73.464-111.12-73.464-179.504c0-70.064, 26.072-135.48, 73.408-184.2c 47.096-48.472, 109.944-75.168, 176.968-75.168
	c 64.584,0, 125.288,24.8, 171.76,69.968l 67.432-69.888L 503.312-24l-67.648,70.104C 481.288,94.52, 506.376,158.752, 506.376,227.456z M 256-20.632
	c-63.952,0-123.928,25.48-168.88,71.744c-45.28,46.608-70.216,109.232-70.216,176.344c0,65.368, 24.92,126.288, 70.16,171.528
	C 131.976,443.896, 191.968,468.632, 256,468.632s 124.024-24.736, 168.936-69.64c 45.248-45.248, 70.16-106.16, 70.16-171.528
	c0-65.632-23.864-126.968-67.272-173.232l-44.776,46.408l-8.12-7.824l 45-46.632C 375.568,3.048, 317.632-20.632, 256-20.632z"  />
<glyph unicode="&#x25;" d="M 248.888,10.664l 142.224,0 L 391.112-32 L 248.888-32 L 248.888,10.664 zM 568.888,408.888l0-284.448 L 71.112,124.44 L 71.112,408.888 L 568.888,408.888  M 640,480L0,480 l0-426.664 l 640,0 L 640,480 L 640,480z" horiz-adv-x="640"  />
<glyph unicode="&#x26;" d="M 199.111,167.111l 85.333,0 l0-85.333 l-85.333,0 L 199.111,167.111 zM 150.756,366.222c 23.561,0, 42.667-19.105, 42.667-42.667c0-23.561-19.105-42.667-42.667-42.667s-42.667,19.105-42.667,42.667
	C 108.089,347.117, 127.194,366.222, 150.756,366.222zM 341.333,423.111l0-398.222 L 56.889,24.889 L 56.889,423.111 L 341.333,423.111  M 398.222,480L0,480 l0-512 l 398.222,0 L 398.222,480 L 398.222,480z" horiz-adv-x="398.222"  />
<glyph unicode="&#x27;" d="M 256,480C 114.616,480,0,365.384,0,224c0-141.384, 114.616-256, 256-256c 141.384,0, 256,114.616, 256,256C 512,365.384, 397.384,480, 256,480z M 460.536,234.24
	L 271.36,234.24 L 271.36,428.16 C 373.76,420.528, 455.44,337.32, 460.536,234.24z M 240.64,428.16l0-193.92 L 51.464,234.24 C 56.56,337.32, 138.24,420.528, 240.64,428.16z M 52.224,203.52
	L 240.64,203.52 l0-183.68 C 141.656,27.216, 62.032,105.216, 52.224,203.52z M 271.36,19.84L 271.36,203.52 l 188.416,0 C 449.968,105.216, 370.344,27.216, 271.36,19.84z"  />
<glyph unicode="&#x28;" d="M 170.667,110.224c 15.707,0, 28.443-12.736, 28.443-28.443C 199.109,66.069, 186.373,53.333, 170.667,53.333
	s-28.443,12.736-28.443,28.443C 142.224,97.488, 154.955,110.224, 170.667,110.224zM 284.443,423.109l0-398.219 L 56.891,24.891 L 56.891,423.109 L 284.443,423.109  M 341.333,480L0,480 l0-512 l 341.333,0 L 341.333,480 L 341.333,480z" horiz-adv-x="341.333"  />
<glyph unicode="&#x29;" d="M 256,480l 64,0 l0-512 l-64,0 L 256,480 zM 128,352l 64,0 l0-384 l-64,0 L 128,352 zM0,224l 64,0 l0-256 L0-32 L0,224 z" horiz-adv-x="320"  />
<glyph unicode="&#x2a;" d="M 512,5.336L 380.736,134.504c 28.736,36.344, 45.936,82.232, 45.936,132.16C 426.664,384.488, 331.152,480, 213.336,480S0,384.488,0,266.664
	s 95.512-213.336, 213.336-213.336c 48.68,0, 93.528,16.336, 129.424,43.784L 474.664-32L 512,5.336z M 213.336,106.664c-88.224,0-160,71.776-160,160
	s 71.776,160, 160,160c 88.224,0, 160-71.776, 160-160S 301.56,106.664, 213.336,106.664z"  />
<glyph unicode="&#x2b;" d="M 564.966,480L0,480 l0-423.724 l 304.755,0 L 402.538-28.469L 402.538,56.276 L 564.966,56.276 L 564.966,480 z M 494.345,126.897L 70.621,126.897 L 70.621,409.379 l 423.724,0 L 494.345,126.897 z" horiz-adv-x="564.966"  />
<glyph unicode="&#x2c;" d="M 51.2,364.257L 205.486,224L 51.2,83.738L 51.2,364.257  M0,480l0-512 l 281.6,256L0,480L0,480z" horiz-adv-x="281.6"  />
<glyph unicode="&#x20;" horiz-adv-x="256" />
</font>
</defs>
</svg>
