<?xml version="1.0" encoding="utf-8"?>
<!-- Generator: Adobe Illustrator 17.0.0, SVG Export Plug-In . SVG Version: 6.00 Build 0)  -->
<!DOCTYPE svg PUBLIC "-//W3C//DTD SVG 1.1//EN" "http://www.w3.org/Graphics/SVG/1.1/DTD/svg11.dtd">
<svg version="1.1" id="Layer_1" xmlns="http://www.w3.org/2000/svg" xmlns:xlink="http://www.w3.org/1999/xlink" x="0px" y="0px"
	 width="64px" height="64px" viewBox="0 0 64 64" enable-background="new 0 0 64 64" xml:space="preserve">
<path fill="#F1AF1D" d="M31.126,0c17.661,0,31.476,13.727,31.476,31.388c0,8.043-2.972,15.563-7.694,21.158l7.519,7.519L58.667,64
	l-7.52-7.606c-5.421,4.634-12.327,7.169-20.022,7.169C13.727,63.563,0,49.312,0,31.388C0,13.727,13.727,0,31.126,0z M31.126,57.792
	c9.706,0,15.738-5.596,15.738-5.596l-3.923-4.01l3.761-3.934l3.835,4.097c3.497-4.459,5.683-10.579,5.683-16.961
	c0-14.514-10.929-25.531-25.093-25.531c-13.902,0-24.743,11.017-24.743,25.531C6.382,46.164,17.223,57.792,31.126,57.792z"/>
<g>
	<path fill="#F1AF1D" d="M23.224,40.507c0,0,3.108,3.552,7.947,3.552c3.373,0,6.215-2.353,6.215-5.727
		c0-3.507-3.107-5.593-6.748-5.593h-2.219l-0.932-2.353l6.526-8.213c0.932-1.332,1.82-2.042,1.82-2.042v-0.089
		c0,0-0.932,0.133-2.663,0.133h-6.04c-0.621,0-0.977,0.311-0.977,0.977v1.998h-4.085v-3.951c0-1.998,0.711-2.841,2.709-2.841h16.514
		v2.797l-8.257,9.944c4.085,0.444,8.879,3.152,8.879,9.19c0,5.238-4.218,9.944-10.744,9.944s-10.343-4.395-10.343-4.395
		L23.224,40.507z"/>
</g>
</svg>
