<?xml version="1.0" encoding="utf-8"?>
<!-- Generator: Adobe Illustrator 17.0.0, SVG Export Plug-In . SVG Version: 6.00 Build 0)  -->
<!DOCTYPE svg PUBLIC "-//W3C//DTD SVG 1.1//EN" "http://www.w3.org/Graphics/SVG/1.1/DTD/svg11.dtd">
<svg version="1.1" id="Layer_1" xmlns="http://www.w3.org/2000/svg" xmlns:xlink="http://www.w3.org/1999/xlink" x="0px" y="0px"
	 width="167px" height="64px" viewBox="0 0 167 64" enable-background="new 0 0 167 64" xml:space="preserve">
<g>
	<path fill="#FFFFFF" d="M83.436,38.565c-1.104,1.104-2.678,1.596-4.415,1.596h-6.034V23.446h6.034c1.737,0,3.31,0.493,4.415,1.596
		c1.877,1.878,1.69,4.179,1.69,6.691C85.126,34.246,85.314,36.687,83.436,38.565z M81.158,27.39
		c-0.563-0.681-1.315-1.033-2.442-1.033h-2.465v10.894h2.465c1.127,0,1.879-0.352,2.442-1.033c0.61-0.751,0.705-1.949,0.705-4.485
		C81.863,29.198,81.769,28.141,81.158,27.39z"/>
	<path fill="#FFFFFF" d="M90.218,40.161V23.446h3.263v16.716H90.218z"/>
	<path fill="#FFFFFF" d="M109.445,38.401c-1.29,1.315-2.84,1.901-4.719,1.901c-1.784,0-3.287-0.61-4.508-1.831
		c-0.727-0.728-1.174-1.573-1.361-2.513c-0.189-0.939-0.282-2.324-0.282-4.155s0.093-3.217,0.282-4.155
		c0.187-0.963,0.634-1.785,1.361-2.513c1.221-1.221,2.723-1.831,4.508-1.831c3.804,0,5.847,2.442,6.292,5.353h-3.287
		c-0.398-1.62-1.385-2.442-3.005-2.442c-0.869,0-1.573,0.305-2.089,0.892c-0.61,0.775-0.798,1.385-0.798,4.696
		c0,3.287,0.14,3.944,0.798,4.719c0.493,0.588,1.197,0.869,2.089,0.869c0.963,0,1.737-0.305,2.324-0.939
		c0.494-0.563,0.752-1.315,0.752-2.23v-0.634h-3.076v-2.723h6.315v2.442C111.042,35.748,110.596,37.18,109.445,38.401z"/>
	<path fill="#FFFFFF" d="M115.853,40.161V23.446h3.263v16.716H115.853z"/>
	<path fill="#FFFFFF" d="M131.159,26.357v13.805h-3.263V26.357h-4.368v-2.911h11.997v2.911H131.159z"/>
	<path fill="#FFFFFF" d="M148.037,40.161l-0.986-2.958h-5.94l-1.01,2.958h-3.405l6.081-16.716h2.56l6.103,16.716H148.037z
		 M144.14,28.376l-2.113,6.08h4.155L144.14,28.376z"/>
	<path fill="#FFFFFF" d="M155.266,40.161V23.446h3.263v13.805h7.584v2.911H155.266z"/>
</g>
<path fill="#FFFFFF" d="M31.126,0c17.661,0,31.476,13.727,31.476,31.388c0,8.043-2.972,15.563-7.694,21.158l7.519,7.519L58.667,64
	l-7.52-7.606c-5.421,4.634-12.327,7.169-20.022,7.169C13.727,63.563,0,49.312,0,31.388C0,13.727,13.727,0,31.126,0z M31.126,57.792
	c9.706,0,15.738-5.596,15.738-5.596l-3.923-4.01l3.761-3.934l3.835,4.097c3.497-4.459,5.683-10.579,5.683-16.961
	c0-14.514-10.929-25.531-25.093-25.531c-13.902,0-24.743,11.017-24.743,25.531C6.382,46.164,17.223,57.792,31.126,57.792z"/>
<g>
	<path fill="#FFFFFF" d="M23.224,40.507c0,0,3.108,3.552,7.947,3.552c3.373,0,6.215-2.353,6.215-5.727
		c0-3.507-3.107-5.593-6.748-5.593h-2.219l-0.932-2.353l6.526-8.213c0.932-1.332,1.82-2.042,1.82-2.042v-0.089
		c0,0-0.932,0.133-2.663,0.133H27.13c-0.621,0-0.977,0.311-0.977,0.977v1.998h-4.085v-3.951c0-1.998,0.711-2.841,2.709-2.841h16.514
		v2.797l-8.257,9.944c4.085,0.444,8.879,3.152,8.879,9.19c0,5.238-4.218,9.944-10.744,9.944c-6.526,0-10.343-4.395-10.343-4.395
		L23.224,40.507z"/>
</g>
<g>
</g>
<g>
</g>
<g>
</g>
<g>
</g>
<g>
</g>
<g>
</g>
</svg>
