<?xml version="1.0" encoding="UTF-8" standalone="no"?>
<svg width="167px" height="64px" viewBox="0 0 167 64" version="1.1" xmlns="http://www.w3.org/2000/svg" xmlns:xlink="http://www.w3.org/1999/xlink" xmlns:sketch="http://www.bohemiancoding.com/sketch/ns">
    <!-- Generator: Sketch 3.2.2 (9983) - http://www.bohemiancoding.com/sketch -->
    <title>Slice 1</title>
    <desc>Created with Sketch.</desc>
    <defs></defs>
    <g id="Page-1" stroke="none" stroke-width="1" fill="none" fill-rule="evenodd" sketch:type="MSPage">
        <g id="3QHH_Logo-White" sketch:type="MSLayerGroup" transform="translate(-7.000000, -8.000000)">
            <g id="Layer_1" transform="translate(7.000000, 8.000000)" fill="#FFFFFF" sketch:type="MSShapeGroup">
                <g id="Group" transform="translate(73.000000, 23.000000)">
                    <path d="M10.4,15.6 C9.3,16.7 7.7,17.2 6,17.2 L0,17.2 L0,0.4 L6,0.4 C7.7,0.4 9.3,0.9 10.4,2 C12.3,3.9 12.1,6.2 12.1,8.7 C12.1,11.2 12.3,13.7 10.4,15.6 L10.4,15.6 Z M8.2,4.4 C7.6,3.7 6.9,3.4 5.8,3.4 L3.3,3.4 L3.3,14.3 L5.8,14.3 C6.9,14.3 7.7,13.9 8.2,13.3 C8.8,12.5 8.9,11.4 8.9,8.8 C8.9,6.2 8.8,5.1 8.2,4.4 L8.2,4.4 Z" id="Shape"></path>
                    <path d="M17.2,17.2 L17.2,0.4 L20.5,0.4 L20.5,17.1 L17.2,17.2 L17.2,17.2 Z" id="Shape"></path>
                    <path d="M36.4,15.4 C35.1,16.7 33.6,17.3 31.7,17.3 C29.9,17.3 28.4,16.7 27.2,15.5 C26.5,14.8 26,13.9 25.8,13 C25.6,12.1 25.5,10.7 25.5,8.8 C25.5,6.9 25.6,5.6 25.8,4.6 C26,3.6 26.4,2.8 27.2,2.1 C28.4,0.9 29.9,0.3 31.7,0.3 C35.5,0.3 37.5,2.7 38,5.7 L34.7,5.7 C34.3,4.1 33.3,3.3 31.7,3.3 C30.8,3.3 30.1,3.6 29.6,4.2 C29,5 28.8,5.6 28.8,8.9 C28.8,12.2 28.9,12.8 29.6,13.6 C30.1,14.2 30.8,14.5 31.7,14.5 C32.7,14.5 33.4,14.2 34,13.6 C34.5,13 34.8,12.3 34.8,11.4 L34.8,10.8 L31.7,10.8 L31.7,8.1 L38,8.1 L38,10.5 C38,12.7 37.6,14.2 36.4,15.4 L36.4,15.4 Z" id="Shape"></path>
                    <path d="M42.9,17.2 L42.9,0.4 L46.2,0.4 L46.2,17.1 L42.9,17.2 L42.9,17.2 Z" id="Shape"></path>
                    <path d="M58.2,3.4 L58.2,17.2 L54.9,17.2 L54.9,3.4 L50.5,3.4 L50.5,0.5 L62.5,0.5 L62.5,3.4 L58.2,3.4 L58.2,3.4 Z" id="Shape"></path>
                    <path d="M75,17.2 L74,14.2 L68.1,14.2 L67.1,17.2 L63.7,17.2 L69.8,0.5 L72.4,0.5 L78.5,17.2 L75,17.2 L75,17.2 Z M71.1,5.4 L69,11.5 L73.2,11.5 L71.1,5.4 L71.1,5.4 Z" id="Shape"></path>
                    <path d="M82.3,17.2 L82.3,0.4 L85.6,0.4 L85.6,14.2 L93.2,14.2 L93.2,17.1 L82.3,17.2 L82.3,17.2 Z" id="Shape"></path>
                </g>
                <path d="M31.1,0 C48.8,0 62.6,13.7 62.6,31.4 C62.6,39.4 59.6,47 54.9,52.6 L62.4,60.1 L58.7,64 L51.2,56.4 C45.8,61 38.9,63.6 31.2,63.6 C13.7,63.6 0,49.3 0,31.4 C0,13.7 13.7,0 31.1,0 L31.1,0 Z M31.1,57.8 C40.8,57.8 46.8,52.2 46.8,52.2 L42.9,48.2 L46.7,44.3 L50.5,48.4 C54,43.9 56.2,37.8 56.2,31.4 C56.2,16.9 45.3,5.9 31.1,5.9 C17.2,5.9 6.4,16.9 6.4,31.4 C6.4,46.2 17.2,57.8 31.1,57.8 L31.1,57.8 Z" id="Shape"></path>
                <path d="M23.2,40.5 C23.2,40.5 26.3,44.1 31.1,44.1 C34.5,44.1 37.3,41.7 37.3,38.4 C37.3,34.9 34.2,32.8 30.6,32.8 L28.4,32.8 L27.5,30.4 L34,22.2 C34.9,20.9 35.8,20.2 35.8,20.2 L35.8,20 C35.8,20 34.9,20.1 33.1,20.1 L27.1,20.1 C26.5,20.1 26.1,20.4 26.1,21.1 L26.1,23.1 L22,23.1 L22,19.1 C22,17.1 22.7,16.3 24.7,16.3 L41.2,16.3 L41.2,19.1 L33,29.1 C37.1,29.5 41.9,32.3 41.9,38.3 C41.9,43.5 37.7,48.2 31.2,48.2 C24.7,48.2 20.9,43.8 20.9,43.8 L23.2,40.5 L23.2,40.5 Z" id="Shape"></path>
            </g>
            <g id="Layer_2" transform="translate(96.000000, 51.000000)" fill="#FFFFFF" sketch:type="MSShapeGroup">
                <g id="Group">
                    <path d="M3.7,5.3 L3.3,4.3 L1.1,4.3 L0.7,5.3 L0.1,5.3 L1.9,0.9 L2.6,0.9 L4.4,5.3 L3.7,5.3 L3.7,5.3 Z M2.2,1.5 L1.3,3.9 L3.2,3.9 L2.2,1.5 L2.2,1.5 Z" id="Shape"></path>
                    <path d="M10.3,5.3 L10.3,3.3 L7.7,3.3 L7.7,5.3 L7.2,5.3 L7.2,0.9 L7.7,0.9 L7.7,2.8 L10.3,2.8 L10.3,0.9 L10.8,0.9 L10.8,5.3 L10.3,5.3 L10.3,5.3 Z" id="Shape"></path>
                    <path d="M14.2,5.3 L14.2,4.9 C13.9,5.2 13.6,5.3 13.2,5.3 C12.7,5.3 12.1,4.9 12.1,4.3 C12.1,3.6 12.7,3.3 13.2,3.3 C13.6,3.3 14,3.4 14.2,3.7 L14.2,3.1 C14.2,2.7 13.9,2.4 13.4,2.4 C13,2.4 12.7,2.5 12.4,2.8 L12.2,2.5 C12.5,2.1 12.9,2 13.5,2 C14.2,2 14.7,2.3 14.7,3.1 L14.7,5.3 L14.2,5.3 L14.2,5.3 Z M14.2,4.6 L14.2,4 C14,3.7 13.7,3.6 13.3,3.6 C12.8,3.6 12.5,3.9 12.5,4.3 C12.5,4.7 12.8,5 13.3,5 C13.7,5 14,4.9 14.2,4.6 L14.2,4.6 Z" id="Shape"></path>
                    <path d="M16,5.3 L16,2.1 L16.5,2.1 L16.5,2.6 C16.8,2.3 17.1,2 17.6,2 L17.6,2.5 L17.4,2.5 C17.1,2.5 16.7,2.7 16.5,3 L16.5,5.2 L16,5.2 L16,5.3 Z" id="Shape"></path>
                    <path d="M18.6,4.6 L18.6,2.5 L18,2.5 L18,2.1 L18.5,2.1 L18.5,1.2 L19,1.2 L19,2.1 L19.6,2.1 L19.6,2.5 L19,2.5 L19,4.5 C19,4.7 19.1,4.9 19.3,4.9 C19.4,4.9 19.6,4.8 19.6,4.8 L19.7,5.2 C19.6,5.3 19.4,5.4 19.1,5.4 C18.8,5.4 18.6,5.1 18.6,4.6 L18.6,4.6 Z" id="Shape"></path>
                    <path d="M20.5,3.7 C20.5,2.8 21.2,2 22.1,2 C23.1,2 23.6,2.7 23.6,3.7 L23.6,3.8 L21,3.8 C21,4.4 21.5,4.9 22.1,4.9 C22.5,4.9 22.8,4.8 23.1,4.5 L23.3,4.8 C23,5.1 22.6,5.3 22,5.3 C21.2,5.4 20.5,4.7 20.5,3.7 L20.5,3.7 Z M22.1,2.5 C21.4,2.5 21.1,3.1 21.1,3.5 L23.2,3.5 C23.1,3 22.8,2.5 22.1,2.5 L22.1,2.5 Z" id="Shape"></path>
                    <path d="M29.5,5.3 L29.5,3.3 L27,3.3 L27,5.3 L26.5,5.3 L26.5,0.9 L27,0.9 L27,2.8 L29.6,2.8 L29.6,0.9 L30.1,0.9 L30.1,5.3 L29.5,5.3 L29.5,5.3 Z" id="Shape"></path>
                    <path d="M33.4,5.3 L33.4,4.9 C33.1,5.2 32.8,5.3 32.4,5.3 C31.9,5.3 31.3,4.9 31.3,4.3 C31.3,3.6 31.9,3.3 32.4,3.3 C32.8,3.3 33.2,3.4 33.4,3.7 L33.4,3.1 C33.4,2.7 33.1,2.4 32.6,2.4 C32.2,2.4 31.9,2.5 31.6,2.8 L31.4,2.5 C31.7,2.1 32.1,2 32.7,2 C33.4,2 33.9,2.3 33.9,3.1 L33.9,5.3 L33.4,5.3 L33.4,5.3 Z M33.4,4.6 L33.4,4 C33.2,3.7 32.9,3.6 32.5,3.6 C32,3.6 31.7,3.9 31.7,4.3 C31.7,4.7 32,5 32.5,5 C32.9,5 33.2,4.9 33.4,4.6 L33.4,4.6 Z" id="Shape"></path>
                    <path d="M37.3,5.3 L37.3,3.2 C37.3,2.6 37,2.5 36.6,2.5 C36.2,2.5 35.9,2.7 35.7,3 L35.7,5.3 L35.2,5.3 L35.2,2.1 L35.7,2.1 L35.7,2.6 C35.9,2.3 36.4,2.1 36.8,2.1 C37.5,2.1 37.8,2.4 37.8,3.1 L37.8,5.3 L37.3,5.3 L37.3,5.3 Z" id="Shape"></path>
                    <path d="M41.3,5.3 L40.2,3.9 L39.7,4.4 L39.7,5.3 L39.2,5.3 L39.2,0.9 L39.7,0.9 L39.7,3.8 L41.4,2.1 L42,2.1 L40.6,3.5 L42,5.2 L41.3,5.2 L41.3,5.3 Z" id="Shape"></path>
                    <path d="M42.6,4.9 L42.8,4.5 C43,4.7 43.4,5 43.8,5 C44.3,5 44.6,4.8 44.6,4.5 C44.6,3.7 42.6,4.2 42.6,3 C42.6,2.5 43,2.1 43.8,2.1 C44.3,2.1 44.7,2.3 45,2.6 L44.8,2.9 C44.6,2.7 44.3,2.5 43.9,2.5 C43.5,2.5 43.2,2.7 43.2,3 C43.2,3.7 45.2,3.2 45.2,4.5 C45.2,5 44.8,5.5 44,5.5 C43.3,5.4 42.9,5.2 42.6,4.9 L42.6,4.9 Z" id="Shape"></path>
                    <path d="M48.1,3.1 C48.1,1.8 49.1,0.8 50.3,0.8 C51.1,0.8 51.6,1.2 52,1.7 L51.5,2 C51.3,1.6 50.8,1.4 50.3,1.4 C49.3,1.4 48.6,2.1 48.6,3.2 C48.6,4.2 49.3,5 50.3,5 C50.8,5 51.3,4.7 51.5,4.4 L52,4.6 C51.6,5.1 51.1,5.5 50.3,5.5 C49,5.4 48.1,4.5 48.1,3.1 L48.1,3.1 Z" id="Shape"></path>
                    <path d="M52.8,3.7 C52.8,2.8 53.4,2 54.4,2 C55.4,2 56,2.7 56,3.7 C56,4.6 55.4,5.4 54.4,5.4 C53.4,5.4 52.8,4.6 52.8,3.7 L52.8,3.7 Z M55.4,3.7 C55.4,3.1 55,2.5 54.4,2.5 C53.7,2.5 53.4,3.1 53.4,3.7 C53.4,4.3 53.8,4.9 54.4,4.9 C55,4.9 55.4,4.4 55.4,3.7 L55.4,3.7 Z" id="Shape"></path>
                    <path d="M60.8,5.3 L60.8,3.2 C60.8,2.8 60.6,2.5 60.2,2.5 C59.9,2.5 59.5,2.7 59.4,3 L59.4,5.3 L58.9,5.3 L58.9,3.2 C58.9,2.8 58.7,2.5 58.3,2.5 C58,2.5 57.6,2.7 57.5,3 L57.5,5.3 L57,5.3 L57,2.1 L57.5,2.1 L57.5,2.6 C57.6,2.4 58.1,2.1 58.5,2.1 C59,2.1 59.3,2.4 59.3,2.7 C59.5,2.4 59.9,2.1 60.4,2.1 C61,2.1 61.3,2.4 61.3,3.1 L61.3,5.4 L60.8,5.4 L60.8,5.3 Z" id="Shape"></path>
                    <path d="M63.1,4.8 L63.1,6.5 L62.6,6.5 L62.6,2.1 L63.1,2.1 L63.1,2.6 C63.3,2.3 63.7,2.1 64.2,2.1 C65,2.1 65.6,2.7 65.6,3.8 C65.6,4.8 65,5.5 64.2,5.5 C63.8,5.4 63.4,5.2 63.1,4.8 L63.1,4.8 Z M65.1,3.7 C65.1,3 64.7,2.5 64.1,2.5 C63.7,2.5 63.3,2.7 63.2,3 L63.2,4.4 C63.4,4.7 63.8,4.9 64.1,4.9 C64.7,4.9 65.1,4.4 65.1,3.7 L65.1,3.7 Z" id="Shape"></path>
                    <path d="M68.7,5.3 L68.7,4.9 C68.4,5.2 68.1,5.3 67.7,5.3 C67.2,5.3 66.6,4.9 66.6,4.3 C66.6,3.6 67.2,3.3 67.7,3.3 C68.1,3.3 68.5,3.4 68.7,3.7 L68.7,3.1 C68.7,2.7 68.4,2.4 67.9,2.4 C67.5,2.4 67.2,2.5 66.9,2.8 L66.7,2.5 C67,2.1 67.4,2 68,2 C68.7,2 69.2,2.3 69.2,3.1 L69.2,5.3 L68.7,5.3 L68.7,5.3 Z M68.7,4.6 L68.7,4 C68.5,3.7 68.2,3.6 67.8,3.6 C67.3,3.6 67,3.9 67,4.3 C67,4.7 67.3,5 67.8,5 C68.2,5 68.5,4.9 68.7,4.6 L68.7,4.6 Z" id="Shape"></path>
                    <path d="M72.6,5.3 L72.6,3.2 C72.6,2.6 72.3,2.5 71.9,2.5 C71.5,2.5 71.2,2.7 71,3 L71,5.3 L70.5,5.3 L70.5,2.1 L71,2.1 L71,2.6 C71.2,2.3 71.7,2.1 72.1,2.1 C72.8,2.1 73.1,2.4 73.1,3.1 L73.1,5.3 L72.6,5.3 L72.6,5.3 Z" id="Shape"></path>
                    <path d="M74.3,6.1 C74.4,6.1 74.5,6.2 74.6,6.2 C74.8,6.2 75,6.1 75.1,5.9 L75.3,5.4 L74,2.2 L74.5,2.2 L75.5,4.8 L76.6,2.2 L77.1,2.2 L75.5,6 C75.3,6.5 75,6.6 74.6,6.6 L74.2,6.6 L74.3,6.1 L74.3,6.1 Z" id="Shape"></path>
                </g>
                <g id="Group">
                    <path d="M3.7,5.3 L3.3,4.3 L1.1,4.3 L0.7,5.3 L0.1,5.3 L1.9,0.9 L2.6,0.9 L4.4,5.3 L3.7,5.3 L3.7,5.3 Z M2.2,1.5 L1.3,3.9 L3.2,3.9 L2.2,1.5 L2.2,1.5 Z" id="Shape"></path>
                    <path d="M10.3,5.3 L10.3,3.3 L7.7,3.3 L7.7,5.3 L7.2,5.3 L7.2,0.9 L7.7,0.9 L7.7,2.8 L10.3,2.8 L10.3,0.9 L10.8,0.9 L10.8,5.3 L10.3,5.3 L10.3,5.3 Z" id="Shape"></path>
                    <path d="M14.2,5.3 L14.2,4.9 C13.9,5.2 13.6,5.3 13.2,5.3 C12.7,5.3 12.1,4.9 12.1,4.3 C12.1,3.6 12.7,3.3 13.2,3.3 C13.6,3.3 14,3.4 14.2,3.7 L14.2,3.1 C14.2,2.7 13.9,2.4 13.4,2.4 C13,2.4 12.7,2.5 12.4,2.8 L12.2,2.5 C12.5,2.1 12.9,2 13.5,2 C14.2,2 14.7,2.3 14.7,3.1 L14.7,5.3 L14.2,5.3 L14.2,5.3 Z M14.2,4.6 L14.2,4 C14,3.7 13.7,3.6 13.3,3.6 C12.8,3.6 12.5,3.9 12.5,4.3 C12.5,4.7 12.8,5 13.3,5 C13.7,5 14,4.9 14.2,4.6 L14.2,4.6 Z" id="Shape"></path>
                    <path d="M16,5.3 L16,2.1 L16.5,2.1 L16.5,2.6 C16.8,2.3 17.1,2 17.6,2 L17.6,2.5 L17.4,2.5 C17.1,2.5 16.7,2.7 16.5,3 L16.5,5.2 L16,5.2 L16,5.3 Z" id="Shape"></path>
                    <path d="M18.6,4.6 L18.6,2.5 L18,2.5 L18,2.1 L18.5,2.1 L18.5,1.2 L19,1.2 L19,2.1 L19.6,2.1 L19.6,2.5 L19,2.5 L19,4.5 C19,4.7 19.1,4.9 19.3,4.9 C19.4,4.9 19.6,4.8 19.6,4.8 L19.7,5.2 C19.6,5.3 19.4,5.4 19.1,5.4 C18.8,5.4 18.6,5.1 18.6,4.6 L18.6,4.6 Z" id="Shape"></path>
                    <path d="M20.5,3.7 C20.5,2.8 21.2,2 22.1,2 C23.1,2 23.6,2.7 23.6,3.7 L23.6,3.8 L21,3.8 C21,4.4 21.5,4.9 22.1,4.9 C22.5,4.9 22.8,4.8 23.1,4.5 L23.3,4.8 C23,5.1 22.6,5.3 22,5.3 C21.2,5.4 20.5,4.7 20.5,3.7 L20.5,3.7 Z M22.1,2.5 C21.4,2.5 21.1,3.1 21.1,3.5 L23.2,3.5 C23.1,3 22.8,2.5 22.1,2.5 L22.1,2.5 Z" id="Shape"></path>
                    <path d="M29.5,5.3 L29.5,3.3 L27,3.3 L27,5.3 L26.5,5.3 L26.5,0.9 L27,0.9 L27,2.8 L29.6,2.8 L29.6,0.9 L30.1,0.9 L30.1,5.3 L29.5,5.3 L29.5,5.3 Z" id="Shape"></path>
                    <path d="M33.4,5.3 L33.4,4.9 C33.1,5.2 32.8,5.3 32.4,5.3 C31.9,5.3 31.3,4.9 31.3,4.3 C31.3,3.6 31.9,3.3 32.4,3.3 C32.8,3.3 33.2,3.4 33.4,3.7 L33.4,3.1 C33.4,2.7 33.1,2.4 32.6,2.4 C32.2,2.4 31.9,2.5 31.6,2.8 L31.4,2.5 C31.7,2.1 32.1,2 32.7,2 C33.4,2 33.9,2.3 33.9,3.1 L33.9,5.3 L33.4,5.3 L33.4,5.3 Z M33.4,4.6 L33.4,4 C33.2,3.7 32.9,3.6 32.5,3.6 C32,3.6 31.7,3.9 31.7,4.3 C31.7,4.7 32,5 32.5,5 C32.9,5 33.2,4.9 33.4,4.6 L33.4,4.6 Z" id="Shape"></path>
                    <path d="M37.3,5.3 L37.3,3.2 C37.3,2.6 37,2.5 36.6,2.5 C36.2,2.5 35.9,2.7 35.7,3 L35.7,5.3 L35.2,5.3 L35.2,2.1 L35.7,2.1 L35.7,2.6 C35.9,2.3 36.4,2.1 36.8,2.1 C37.5,2.1 37.8,2.4 37.8,3.1 L37.8,5.3 L37.3,5.3 L37.3,5.3 Z" id="Shape"></path>
                    <path d="M41.3,5.3 L40.2,3.9 L39.7,4.4 L39.7,5.3 L39.2,5.3 L39.2,0.9 L39.7,0.9 L39.7,3.8 L41.4,2.1 L42,2.1 L40.6,3.5 L42,5.2 L41.3,5.2 L41.3,5.3 Z" id="Shape"></path>
                    <path d="M42.6,4.9 L42.8,4.5 C43,4.7 43.4,5 43.8,5 C44.3,5 44.6,4.8 44.6,4.5 C44.6,3.7 42.6,4.2 42.6,3 C42.6,2.5 43,2.1 43.8,2.1 C44.3,2.1 44.7,2.3 45,2.6 L44.8,2.9 C44.6,2.7 44.3,2.5 43.9,2.5 C43.5,2.5 43.2,2.7 43.2,3 C43.2,3.7 45.2,3.2 45.2,4.5 C45.2,5 44.8,5.5 44,5.5 C43.3,5.4 42.9,5.2 42.6,4.9 L42.6,4.9 Z" id="Shape"></path>
                    <path d="M48.1,3.1 C48.1,1.8 49.1,0.8 50.3,0.8 C51.1,0.8 51.6,1.2 52,1.7 L51.5,2 C51.3,1.6 50.8,1.4 50.3,1.4 C49.3,1.4 48.6,2.1 48.6,3.2 C48.6,4.2 49.3,5 50.3,5 C50.8,5 51.3,4.7 51.5,4.4 L52,4.6 C51.6,5.1 51.1,5.5 50.3,5.5 C49,5.4 48.1,4.5 48.1,3.1 L48.1,3.1 Z" id="Shape"></path>
                    <path d="M52.8,3.7 C52.8,2.8 53.4,2 54.4,2 C55.4,2 56,2.7 56,3.7 C56,4.6 55.4,5.4 54.4,5.4 C53.4,5.4 52.8,4.6 52.8,3.7 L52.8,3.7 Z M55.4,3.7 C55.4,3.1 55,2.5 54.4,2.5 C53.7,2.5 53.4,3.1 53.4,3.7 C53.4,4.3 53.8,4.9 54.4,4.9 C55,4.9 55.4,4.4 55.4,3.7 L55.4,3.7 Z" id="Shape"></path>
                    <path d="M60.8,5.3 L60.8,3.2 C60.8,2.8 60.6,2.5 60.2,2.5 C59.9,2.5 59.5,2.7 59.4,3 L59.4,5.3 L58.9,5.3 L58.9,3.2 C58.9,2.8 58.7,2.5 58.3,2.5 C58,2.5 57.6,2.7 57.5,3 L57.5,5.3 L57,5.3 L57,2.1 L57.5,2.1 L57.5,2.6 C57.6,2.4 58.1,2.1 58.5,2.1 C59,2.1 59.3,2.4 59.3,2.7 C59.5,2.4 59.9,2.1 60.4,2.1 C61,2.1 61.3,2.4 61.3,3.1 L61.3,5.4 L60.8,5.4 L60.8,5.3 Z" id="Shape"></path>
                    <path d="M63.1,4.8 L63.1,6.5 L62.6,6.5 L62.6,2.1 L63.1,2.1 L63.1,2.6 C63.3,2.3 63.7,2.1 64.2,2.1 C65,2.1 65.6,2.7 65.6,3.8 C65.6,4.8 65,5.5 64.2,5.5 C63.8,5.4 63.4,5.2 63.1,4.8 L63.1,4.8 Z M65.1,3.7 C65.1,3 64.7,2.5 64.1,2.5 C63.7,2.5 63.3,2.7 63.2,3 L63.2,4.4 C63.4,4.7 63.8,4.9 64.1,4.9 C64.7,4.9 65.1,4.4 65.1,3.7 L65.1,3.7 Z" id="Shape"></path>
                    <path d="M68.7,5.3 L68.7,4.9 C68.4,5.2 68.1,5.3 67.7,5.3 C67.2,5.3 66.6,4.9 66.6,4.3 C66.6,3.6 67.2,3.3 67.7,3.3 C68.1,3.3 68.5,3.4 68.7,3.7 L68.7,3.1 C68.7,2.7 68.4,2.4 67.9,2.4 C67.5,2.4 67.2,2.5 66.9,2.8 L66.7,2.5 C67,2.1 67.4,2 68,2 C68.7,2 69.2,2.3 69.2,3.1 L69.2,5.3 L68.7,5.3 L68.7,5.3 Z M68.7,4.6 L68.7,4 C68.5,3.7 68.2,3.6 67.8,3.6 C67.3,3.6 67,3.9 67,4.3 C67,4.7 67.3,5 67.8,5 C68.2,5 68.5,4.9 68.7,4.6 L68.7,4.6 Z" id="Shape"></path>
                    <path d="M72.6,5.3 L72.6,3.2 C72.6,2.6 72.3,2.5 71.9,2.5 C71.5,2.5 71.2,2.7 71,3 L71,5.3 L70.5,5.3 L70.5,2.1 L71,2.1 L71,2.6 C71.2,2.3 71.7,2.1 72.1,2.1 C72.8,2.1 73.1,2.4 73.1,3.1 L73.1,5.3 L72.6,5.3 L72.6,5.3 Z" id="Shape"></path>
                    <path d="M74.3,6.1 C74.4,6.1 74.5,6.2 74.6,6.2 C74.8,6.2 75,6.1 75.1,5.9 L75.3,5.4 L74,2.2 L74.5,2.2 L75.5,4.8 L76.6,2.2 L77.1,2.2 L75.5,6 C75.3,6.5 75,6.6 74.6,6.6 L74.2,6.6 L74.3,6.1 L74.3,6.1 Z" id="Shape"></path>
                </g>
            </g>
            <g id="Layer_4" transform="translate(7.000000, 8.000000)"></g>
        </g>
    </g>
</svg>