<?xml version="1.0" encoding="utf-8"?>
<!-- Generator: Adobe Illustrator 18.1.1, SVG Export Plug-In . SVG Version: 6.00 Build 0)  -->
<svg version="1.1" id="Layer_1" xmlns="http://www.w3.org/2000/svg" xmlns:xlink="http://www.w3.org/1999/xlink" x="0px" y="0px"
	 viewBox="0 0 216 216" enable-background="new 0 0 216 216" xml:space="preserve">
<path fill="#7EA8AD" d="M108.4,114.8c-1.1,1.1-2.8,1.7-4.6,1.7h-6.3V99.1h6.3c1.8,0,3.5,0.5,4.6,1.7c2,2,1.8,4.3,1.8,7
	C110.2,110.3,110.3,112.9,108.4,114.8z M106,103.2c-0.6-0.7-1.4-1.1-2.6-1.1h-2.5v11.3h2.5c1.2,0,2-0.4,2.6-1.1
	c0.6-0.8,0.7-2,0.7-4.7C106.8,105.1,106.6,104,106,103.2z"/>
<path fill="#7EA8AD" d="M115.4,116.5V99.1h3.4v17.4H115.4z"/>
<path fill="#7EA8AD" d="M135.4,114.7c-1.4,1.4-2.9,2-4.9,2c-1.9,0-3.4-0.6-4.7-1.9c-0.8-0.8-1.2-1.7-1.4-2.6c-0.2-1-0.3-2.4-0.3-4.3
	s0.1-3.4,0.3-4.3c0.2-1,0.7-1.9,1.4-2.6c1.3-1.3,2.8-1.9,4.7-1.9c4,0,6.1,2.5,6.5,5.6h-3.4c-0.4-1.7-1.4-2.6-3.1-2.6
	c-0.9,0-1.6,0.3-2.2,0.9c-0.6,0.8-0.8,1.4-0.8,4.9c0,3.4,0.2,4.1,0.8,4.9c0.5,0.6,1.3,0.9,2.2,0.9c1,0,1.8-0.3,2.4-1
	c0.5-0.6,0.8-1.4,0.8-2.3v-0.7h-3.2v-2.8h6.6v2.6C137.1,111.9,136.6,113.4,135.4,114.7z"/>
<path fill="#7EA8AD" d="M142.1,116.5V99.1h3.4v17.4H142.1z"/>
<path fill="#7EA8AD" d="M158,102.1v14.4h-3.4v-14.4h-4.5v-3h12.5v3H158z"/>
<path fill="#7EA8AD" d="M175.6,116.5l-1-3.1h-6.2l-1.1,3.1h-3.5l6.3-17.4h2.7l6.4,17.4H175.6z M171.5,104.2l-2.2,6.3h4.3
	L171.5,104.2z"/>
<path fill="#7EA8AD" d="M183.1,116.5V99.1h3.4v14.4h7.9v3H183.1z"/>
<path fill="#4D868E" d="M54,74.7c18.4,0,32.7,14.3,32.7,32.6c0,8.4-3.1,16.2-8,22l7.8,7.8l-3.9,4.1l-7.8-7.9
	c-5.6,4.8-12.8,7.5-20.8,7.5c-18.1,0-32.4-14.8-32.4-33.5C21.6,89,35.9,74.7,54,74.7z M54,134.8c10.1,0,16.4-5.8,16.4-5.8l-4.1-4.2
	l3.9-4.1l4,4.3c3.6-4.6,5.9-11,5.9-17.6c0-15.1-11.4-26.6-26.1-26.6c-14.5,0-25.7,11.5-25.7,26.6C28.2,122.7,39.5,134.8,54,134.8z"
	/>
<path fill="#F9BE00" d="M45.7,116.8c0,0,3.2,3.7,8.3,3.7c3.5,0,6.5-2.5,6.5-6c0-3.7-3.2-5.8-7-5.8h-2.3l-1-2.5l6.8-8.5
	c1-1.4,1.9-2.1,1.9-2.1v-0.1c0,0-1,0.1-2.8,0.1h-6.3c-0.7,0-1,0.3-1,1v2.1h-4.3v-4.1c0-2.1,0.8-3,2.8-3h17.2v2.9L56,104.9
	c4.3,0.4,9.2,3.3,9.2,9.6c0,5.5-4.4,10.4-11.2,10.4s-10.8-4.6-10.8-4.6L45.7,116.8z"/>
<path fill="#7EA8AD" d="M118.1,124.7l-0.4-1h-2.2l-0.4,1h-0.6l1.8-4.5h0.7l1.8,4.5H118.1z M116.6,120.8l-1,2.4h1.9L116.6,120.8z"/>
<path fill="#7EA8AD" d="M124.9,124.7v-2.1h-2.6v2.1h-0.6v-4.5h0.6v1.9h2.6v-1.9h0.6v4.5H124.9z"/>
<path fill="#7EA8AD" d="M128.9,124.7v-0.4c-0.3,0.3-0.6,0.5-1.1,0.5c-0.5,0-1.1-0.4-1.1-1.1s0.6-1.1,1.1-1.1c0.5,0,0.8,0.1,1.1,0.4
	v-0.6c0-0.4-0.4-0.7-0.8-0.7c-0.4,0-0.7,0.1-1,0.4l-0.2-0.4c0.4-0.4,0.8-0.5,1.3-0.5c0.7,0,1.3,0.3,1.3,1.1v2.2L128.9,124.7
	L128.9,124.7z M128.9,124v-0.6c-0.2-0.3-0.5-0.4-0.9-0.4c-0.5,0-0.8,0.3-0.8,0.7s0.3,0.7,0.8,0.7C128.3,124.4,128.7,124.3,128.9,124
	z"/>
<path fill="#7EA8AD" d="M130.7,124.7v-3.2h0.5v0.5c0.3-0.3,0.6-0.6,1.1-0.6v0.5c-0.1,0-0.1,0-0.2,0c-0.3,0-0.8,0.3-0.9,0.5v2.3
	C131.2,124.7,130.7,124.7,130.7,124.7z"/>
<path fill="#7EA8AD" d="M133.4,124v-2.1h-0.5v-0.4h0.5v-0.9h0.5v0.9h0.7v0.4h-0.7v2c0,0.2,0.1,0.4,0.3,0.4s0.3-0.1,0.3-0.2l0.2,0.4
	c-0.1,0.1-0.3,0.2-0.6,0.2C133.6,124.8,133.4,124.5,133.4,124z"/>
<path fill="#7EA8AD" d="M135.4,123.1c0-0.9,0.7-1.7,1.6-1.7c1,0,1.6,0.8,1.6,1.7v0.1H136c0,0.6,0.4,1.1,1.2,1.1c0.4,0,0.8-0.2,1-0.4
	l0.2,0.3c-0.3,0.3-0.8,0.5-1.3,0.5C136.1,124.8,135.4,124.1,135.4,123.1z M137,121.8c-0.7,0-1,0.6-1,1.1h2.1
	C138.1,122.4,137.8,121.8,137,121.8z"/>
<path fill="#7EA8AD" d="M144.7,124.7v-2.1h-2.6v2.1h-0.6v-4.5h0.6v1.9h2.6v-1.9h0.6v4.5H144.7z"/>
<path fill="#7EA8AD" d="M148.6,124.7v-0.4c-0.3,0.3-0.6,0.5-1.1,0.5s-1.1-0.4-1.1-1.1s0.6-1.1,1.1-1.1c0.4,0,0.8,0.1,1.1,0.4v-0.6
	c0-0.4-0.4-0.7-0.8-0.7c-0.4,0-0.7,0.1-1,0.4l-0.2-0.4c0.4-0.4,0.8-0.5,1.3-0.5c0.7,0,1.3,0.3,1.3,1.1v2.2L148.6,124.7L148.6,124.7z
	 M148.6,124v-0.6c-0.2-0.3-0.5-0.4-0.9-0.4c-0.5,0-0.8,0.3-0.8,0.7s0.3,0.7,0.8,0.7C148.1,124.4,148.4,124.3,148.6,124z"/>
<path fill="#7EA8AD" d="M152.7,124.7v-2.1c0-0.6-0.3-0.8-0.7-0.8s-0.8,0.2-1,0.5v2.4h-0.5v-3.2h0.5v0.5c0.2-0.3,0.7-0.5,1.2-0.5
	c0.7,0,1,0.3,1,1v2.3L152.7,124.7L152.7,124.7z"/>
<path fill="#7EA8AD" d="M156.8,124.7l-1.2-1.5l-0.5,0.5v0.9h-0.5v-4.5h0.5v3l1.7-1.7h0.6l-1.4,1.5l1.4,1.8L156.8,124.7L156.8,124.7z
	"/>
<path fill="#7EA8AD" d="M158.1,124.3l0.2-0.4c0.2,0.2,0.6,0.4,1.1,0.4s0.8-0.2,0.8-0.6c0-0.8-2-0.3-2-1.5c0-0.5,0.4-0.9,1.2-0.9
	c0.6,0,1,0.2,1.2,0.5l-0.2,0.4c-0.2-0.2-0.5-0.4-1-0.4c-0.4,0-0.7,0.2-0.7,0.5c0,0.7,2,0.2,2,1.5c0,0.5-0.4,1-1.3,1
	C158.8,124.8,158.4,124.6,158.1,124.3z"/>
<path fill="#7EA8AD" d="M163.7,122.5c0-1.4,1-2.3,2.3-2.3c0.8,0,1.4,0.4,1.7,0.9l-0.4,0.3c-0.3-0.4-0.7-0.7-1.2-0.7
	c-1,0-1.7,0.8-1.7,1.8c0,1.1,0.8,1.8,1.7,1.8c0.5,0,1-0.3,1.2-0.7l0.5,0.3c-0.4,0.5-0.9,0.9-1.7,0.9
	C164.7,124.8,163.7,123.8,163.7,122.5z"/>
<path fill="#7EA8AD" d="M168.6,123.1c0-0.9,0.6-1.7,1.6-1.7s1.6,0.8,1.6,1.7c0,0.9-0.6,1.7-1.6,1.7
	C169.2,124.8,168.6,124,168.6,123.1z M171.2,123.1c0-0.7-0.4-1.3-1.1-1.3s-1.1,0.6-1.1,1.3s0.4,1.3,1.1,1.3S171.2,123.7,171.2,123.1
	z"/>
<path fill="#7EA8AD" d="M176.9,124.7v-2.2c0-0.4-0.2-0.7-0.6-0.7c-0.3,0-0.7,0.2-0.9,0.5v2.4h-0.5v-2.2c0-0.4-0.2-0.7-0.6-0.7
	c-0.3,0-0.7,0.2-0.8,0.5v2.4H173v-3.2h0.5v0.5c0.1-0.2,0.6-0.5,1.1-0.5s0.8,0.3,0.9,0.6c0.2-0.3,0.6-0.6,1.1-0.6
	c0.6,0,0.9,0.3,0.9,1v2.3L176.9,124.7L176.9,124.7z"/>
<path fill="#7EA8AD" d="M179.2,124.2v1.7h-0.5v-4.5h0.5v0.5c0.2-0.3,0.6-0.6,1.1-0.6c0.8,0,1.4,0.7,1.4,1.7s-0.6,1.7-1.4,1.7
	C179.9,124.8,179.5,124.6,179.2,124.2z M181.2,123.1c0-0.7-0.4-1.3-1.1-1.3c-0.4,0-0.8,0.2-1,0.5v1.5c0.2,0.3,0.6,0.5,1,0.5
	C180.8,124.3,181.2,123.8,181.2,123.1z"/>
<path fill="#7EA8AD" d="M184.9,124.7v-0.4c-0.3,0.3-0.6,0.5-1.1,0.5s-1.1-0.4-1.1-1.1s0.6-1.1,1.1-1.1c0.4,0,0.8,0.1,1.1,0.4v-0.6
	c0-0.4-0.4-0.7-0.8-0.7c-0.4,0-0.7,0.1-1,0.4l-0.2-0.4c0.4-0.4,0.8-0.5,1.3-0.5c0.7,0,1.3,0.3,1.3,1.1v2.2L184.9,124.7L184.9,124.7z
	 M184.9,124v-0.6c-0.2-0.3-0.5-0.4-0.9-0.4c-0.5,0-0.8,0.3-0.8,0.7s0.3,0.7,0.8,0.7C184.4,124.4,184.7,124.3,184.9,124z"/>
<path fill="#7EA8AD" d="M189,124.7v-2.1c0-0.6-0.3-0.8-0.7-0.8s-0.8,0.2-1,0.5v2.4h-0.5v-3.2h0.5v0.5c0.2-0.3,0.7-0.5,1.2-0.5
	c0.7,0,1,0.3,1,1v2.3L189,124.7L189,124.7z"/>
<path fill="#7EA8AD" d="M190.7,125.5c0.1,0,0.2,0.1,0.3,0.1c0.2,0,0.4-0.1,0.5-0.3l0.2-0.5l-1.4-3.3h0.5l1.1,2.7l1.1-2.7h0.5
	l-1.6,3.9c-0.2,0.5-0.5,0.7-1,0.7c-0.1,0-0.3,0-0.4-0.1L190.7,125.5z"/>
</svg>