<?xml version="1.0" encoding="utf-8"?>
<!-- Generator: Adobe Illustrator 18.0.0, SVG Export Plug-In . SVG Version: 6.00 Build 0)  -->
<!DOCTYPE svg PUBLIC "-//W3C//DTD SVG 1.1//EN" "http://www.w3.org/Graphics/SVG/1.1/DTD/svg11.dtd">
<svg version="1.1" xmlns="http://www.w3.org/2000/svg" xmlns:xlink="http://www.w3.org/1999/xlink" x="0px" y="0px"
	 viewBox="0 0 166.1 64" enable-background="new 0 0 166.1 64" xml:space="preserve">
<g id="Layer_3" display="none">
	<rect x="-6.8" y="-7.5" display="inline" fill="#404041" width="179.3" height="79.2"/>
</g>
<g id="Layer_1">
	<g>
		<path fill="#FFFFFF" d="M83.4,38.6c-1.1,1.1-2.7,1.6-4.4,1.6h-6V23.4h6c1.7,0,3.3,0.5,4.4,1.6c1.9,1.9,1.7,4.2,1.7,6.7
			C85.1,34.2,85.3,36.7,83.4,38.6z M81.2,27.4c-0.6-0.7-1.3-1-2.4-1h-2.5v10.9h2.5c1.1,0,1.9-0.4,2.4-1c0.6-0.8,0.7-1.9,0.7-4.5
			C81.9,29.2,81.8,28.1,81.2,27.4z"/>
		<path fill="#FFFFFF" d="M90.2,40.2V23.4h3.3v16.7L90.2,40.2L90.2,40.2z"/>
		<path fill="#FFFFFF" d="M109.4,38.4c-1.3,1.3-2.8,1.9-4.7,1.9c-1.8,0-3.3-0.6-4.5-1.8c-0.7-0.7-1.2-1.6-1.4-2.5
			c-0.2-0.9-0.3-2.3-0.3-4.2s0.1-3.2,0.3-4.2c0.2-1,0.6-1.8,1.4-2.5c1.2-1.2,2.7-1.8,4.5-1.8c3.8,0,5.8,2.4,6.3,5.4h-3.3
			c-0.4-1.6-1.4-2.4-3-2.4c-0.9,0-1.6,0.3-2.1,0.9c-0.6,0.8-0.8,1.4-0.8,4.7c0,3.3,0.1,3.9,0.8,4.7c0.5,0.6,1.2,0.9,2.1,0.9
			c1,0,1.7-0.3,2.3-0.9c0.5-0.6,0.8-1.3,0.8-2.2v-0.6h-3.1v-2.7h6.3v2.4C111,35.7,110.6,37.2,109.4,38.4z"/>
		<path fill="#FFFFFF" d="M115.9,40.2V23.4h3.3v16.7L115.9,40.2L115.9,40.2z"/>
		<path fill="#FFFFFF" d="M131.2,26.4v13.8h-3.3V26.4h-4.4v-2.9h12v2.9H131.2z"/>
		<path fill="#FFFFFF" d="M148,40.2l-1-3h-5.9l-1,3h-3.4l6.1-16.7h2.6l6.1,16.7H148z M144.1,28.4l-2.1,6.1h4.2L144.1,28.4z"/>
		<path fill="#FFFFFF" d="M155.3,40.2V23.4h3.3v13.8h7.6v2.9L155.3,40.2L155.3,40.2z"/>
	</g>
	<path fill="#FFFFFF" d="M31.1,0c17.7,0,31.5,13.7,31.5,31.4c0,8-3,15.6-7.7,21.2l7.5,7.5L58.7,64l-7.5-7.6
		c-5.4,4.6-12.3,7.2-20,7.2C13.7,63.6,0,49.3,0,31.4C0,13.7,13.7,0,31.1,0z M31.1,57.8c9.7,0,15.7-5.6,15.7-5.6l-3.9-4l3.8-3.9
		l3.8,4.1c3.5-4.5,5.7-10.6,5.7-17c0-14.5-10.9-25.5-25.1-25.5c-13.9,0-24.7,11-24.7,25.5C6.4,46.2,17.2,57.8,31.1,57.8z"/>
	<g>
		<path fill="#FFFFFF" d="M23.2,40.5c0,0,3.1,3.6,7.9,3.6c3.4,0,6.2-2.4,6.2-5.7c0-3.5-3.1-5.6-6.7-5.6h-2.2l-0.9-2.4l6.5-8.2
			c0.9-1.3,1.8-2,1.8-2V20c0,0-0.9,0.1-2.7,0.1h-6c-0.6,0-1,0.3-1,1v2h-4.1v-4c0-2,0.7-2.8,2.7-2.8h16.5v2.8L33,29.1
			c4.1,0.4,8.9,3.2,8.9,9.2c0,5.2-4.2,9.9-10.7,9.9s-10.3-4.4-10.3-4.4L23.2,40.5z"/>
	</g>
</g>
<g id="Layer_2">
	<g>
		<path fill="#FFFFFF" d="M92.7,48.3l-0.4-1h-2.2l-0.4,1h-0.6l1.8-4.4h0.7l1.8,4.4H92.7z M91.2,44.5l-0.9,2.4h1.9L91.2,44.5z"/>
		<path fill="#FFFFFF" d="M99.3,48.3v-2h-2.6v2h-0.5v-4.4h0.5v1.9h2.6v-1.9h0.5v4.4H99.3z"/>
		<path fill="#FFFFFF" d="M103.2,48.3v-0.4c-0.3,0.3-0.6,0.4-1,0.4c-0.5,0-1.1-0.4-1.1-1c0-0.7,0.6-1,1.1-1c0.4,0,0.8,0.1,1,0.4
			v-0.6c0-0.4-0.3-0.7-0.8-0.7c-0.4,0-0.7,0.1-1,0.4l-0.2-0.3c0.3-0.4,0.7-0.5,1.3-0.5c0.7,0,1.2,0.3,1.2,1.1v2.2H103.2z
			 M103.2,47.6V47c-0.2-0.3-0.5-0.4-0.9-0.4c-0.5,0-0.8,0.3-0.8,0.7c0,0.4,0.3,0.7,0.8,0.7C102.7,48,103,47.9,103.2,47.6z"/>
		<path fill="#FFFFFF" d="M105,48.3v-3.2h0.5v0.5c0.3-0.3,0.6-0.6,1.1-0.6v0.5c-0.1,0-0.1,0-0.2,0c-0.3,0-0.7,0.2-0.9,0.5v2.2H105z"
			/>
		<path fill="#FFFFFF" d="M107.6,47.6v-2.1H107v-0.4h0.5v-0.9h0.5v0.9h0.6v0.4h-0.6v2c0,0.2,0.1,0.4,0.3,0.4c0.1,0,0.3-0.1,0.3-0.1
			l0.1,0.4c-0.1,0.1-0.3,0.2-0.6,0.2C107.8,48.4,107.6,48.1,107.6,47.6z"/>
		<path fill="#FFFFFF" d="M109.5,46.7c0-0.9,0.7-1.7,1.6-1.7c1,0,1.5,0.7,1.5,1.7v0.1h-2.6c0,0.6,0.5,1.1,1.1,1.1
			c0.4,0,0.7-0.1,1-0.4l0.2,0.3c-0.3,0.3-0.7,0.5-1.3,0.5C110.2,48.4,109.5,47.7,109.5,46.7z M111.1,45.5c-0.7,0-1,0.6-1,1h2.1
			C112.1,46,111.8,45.5,111.1,45.5z"/>
		<path fill="#FFFFFF" d="M118.5,48.3v-2H116v2h-0.5v-4.4h0.5v1.9h2.6v-1.9h0.5v4.4H118.5z"/>
		<path fill="#FFFFFF" d="M122.4,48.3v-0.4c-0.3,0.3-0.6,0.4-1,0.4c-0.5,0-1.1-0.4-1.1-1c0-0.7,0.6-1,1.1-1c0.4,0,0.8,0.1,1,0.4
			v-0.6c0-0.4-0.3-0.7-0.8-0.7c-0.4,0-0.7,0.1-1,0.4l-0.2-0.3c0.3-0.4,0.7-0.5,1.3-0.5c0.7,0,1.2,0.3,1.2,1.1v2.2H122.4z
			 M122.4,47.6V47c-0.2-0.3-0.5-0.4-0.9-0.4c-0.5,0-0.8,0.3-0.8,0.7c0,0.4,0.3,0.7,0.8,0.7C121.9,48,122.2,47.9,122.4,47.6z"/>
		<path fill="#FFFFFF" d="M126.3,48.3v-2.1c0-0.6-0.3-0.7-0.7-0.7c-0.4,0-0.7,0.2-0.9,0.5v2.3h-0.5v-3.2h0.5v0.5
			c0.2-0.3,0.7-0.5,1.1-0.5c0.7,0,1,0.3,1,1v2.2H126.3z"/>
		<path fill="#FFFFFF" d="M130.3,48.3l-1.1-1.4l-0.5,0.5v0.9h-0.5v-4.4h0.5v2.9l1.7-1.7h0.6l-1.4,1.4l1.4,1.7H130.3z"/>
		<path fill="#FFFFFF" d="M131.6,47.9l0.2-0.4c0.2,0.2,0.6,0.5,1,0.5c0.5,0,0.8-0.2,0.8-0.5c0-0.8-2-0.3-2-1.5
			c0-0.5,0.4-0.9,1.2-0.9c0.5,0,0.9,0.2,1.2,0.5l-0.2,0.3c-0.2-0.2-0.5-0.4-0.9-0.4c-0.4,0-0.7,0.2-0.7,0.5c0,0.7,2,0.2,2,1.5
			c0,0.5-0.4,1-1.2,1C132.3,48.4,131.9,48.2,131.6,47.9z"/>
		<path fill="#FFFFFF" d="M137.1,46.1c0-1.3,1-2.3,2.2-2.3c0.8,0,1.3,0.4,1.7,0.9l-0.5,0.3c-0.2-0.4-0.7-0.6-1.2-0.6
			c-1,0-1.7,0.7-1.7,1.8c0,1,0.7,1.8,1.7,1.8c0.5,0,1-0.3,1.2-0.6l0.5,0.2c-0.4,0.5-0.9,0.9-1.7,0.9C138,48.4,137.1,47.5,137.1,46.1
			z"/>
		<path fill="#FFFFFF" d="M141.8,46.7c0-0.9,0.6-1.7,1.6-1.7c1,0,1.6,0.7,1.6,1.7c0,0.9-0.6,1.7-1.6,1.7
			C142.4,48.4,141.8,47.6,141.8,46.7z M144.4,46.7c0-0.6-0.4-1.2-1-1.2c-0.7,0-1,0.6-1,1.2c0,0.6,0.4,1.2,1,1.2
			C144,47.9,144.4,47.4,144.4,46.7z"/>
		<path fill="#FFFFFF" d="M149.8,48.3v-2.1c0-0.4-0.2-0.7-0.6-0.7c-0.3,0-0.7,0.2-0.8,0.5v2.3h-0.5v-2.1c0-0.4-0.2-0.7-0.6-0.7
			c-0.3,0-0.7,0.2-0.8,0.5v2.3H146v-3.2h0.5v0.5c0.1-0.2,0.6-0.5,1-0.5c0.5,0,0.8,0.3,0.8,0.6c0.2-0.3,0.6-0.6,1.1-0.6
			c0.6,0,0.9,0.3,0.9,1v2.3H149.8z"/>
		<path fill="#FFFFFF" d="M152.1,47.8v1.7h-0.5v-4.4h0.5v0.5c0.2-0.3,0.6-0.5,1.1-0.5c0.8,0,1.4,0.6,1.4,1.7c0,1-0.6,1.7-1.4,1.7
			C152.8,48.4,152.4,48.2,152.1,47.8z M154.1,46.7c0-0.7-0.4-1.2-1-1.2c-0.4,0-0.8,0.2-0.9,0.5v1.4c0.2,0.3,0.6,0.5,0.9,0.5
			C153.7,47.9,154.1,47.4,154.1,46.7z"/>
		<path fill="#FFFFFF" d="M157.7,48.3v-0.4c-0.3,0.3-0.6,0.4-1,0.4c-0.5,0-1.1-0.4-1.1-1c0-0.7,0.6-1,1.1-1c0.4,0,0.8,0.1,1,0.4
			v-0.6c0-0.4-0.3-0.7-0.8-0.7c-0.4,0-0.7,0.1-1,0.4l-0.2-0.3c0.3-0.4,0.7-0.5,1.3-0.5c0.7,0,1.2,0.3,1.2,1.1v2.2H157.7z
			 M157.7,47.6V47c-0.2-0.3-0.5-0.4-0.9-0.4c-0.5,0-0.8,0.3-0.8,0.7c0,0.4,0.3,0.7,0.8,0.7C157.2,48,157.5,47.9,157.7,47.6z"/>
		<path fill="#FFFFFF" d="M161.6,48.3v-2.1c0-0.6-0.3-0.7-0.7-0.7c-0.4,0-0.7,0.2-0.9,0.5v2.3h-0.5v-3.2h0.5v0.5
			c0.2-0.3,0.7-0.5,1.1-0.5c0.7,0,1,0.3,1,1v2.2H161.6z"/>
		<path fill="#FFFFFF" d="M163.3,49.1c0.1,0,0.2,0.1,0.3,0.1c0.2,0,0.4-0.1,0.5-0.3l0.2-0.5l-1.3-3.2h0.5l1,2.6l1.1-2.6h0.5
			l-1.6,3.8c-0.2,0.5-0.5,0.6-0.9,0.6c-0.1,0-0.3,0-0.4,0L163.3,49.1z"/>
	</g>
	<g>
		<path fill="#FFFFFF" d="M92.7,48.3l-0.4-1h-2.2l-0.4,1h-0.6l1.8-4.4h0.7l1.8,4.4H92.7z M91.2,44.5l-0.9,2.4h1.9L91.2,44.5z"/>
		<path fill="#FFFFFF" d="M99.3,48.3v-2h-2.6v2h-0.5v-4.4h0.5v1.9h2.6v-1.9h0.5v4.4H99.3z"/>
		<path fill="#FFFFFF" d="M103.2,48.3v-0.4c-0.3,0.3-0.6,0.4-1,0.4c-0.5,0-1.1-0.4-1.1-1c0-0.7,0.6-1,1.1-1c0.4,0,0.8,0.1,1,0.4
			v-0.6c0-0.4-0.3-0.7-0.8-0.7c-0.4,0-0.7,0.1-1,0.4l-0.2-0.3c0.3-0.4,0.7-0.5,1.3-0.5c0.7,0,1.2,0.3,1.2,1.1v2.2H103.2z
			 M103.2,47.6V47c-0.2-0.3-0.5-0.4-0.9-0.4c-0.5,0-0.8,0.3-0.8,0.7c0,0.4,0.3,0.7,0.8,0.7C102.7,48,103,47.9,103.2,47.6z"/>
		<path fill="#FFFFFF" d="M105,48.3v-3.2h0.5v0.5c0.3-0.3,0.6-0.6,1.1-0.6v0.5c-0.1,0-0.1,0-0.2,0c-0.3,0-0.7,0.2-0.9,0.5v2.2H105z"
			/>
		<path fill="#FFFFFF" d="M107.6,47.6v-2.1H107v-0.4h0.5v-0.9h0.5v0.9h0.6v0.4h-0.6v2c0,0.2,0.1,0.4,0.3,0.4c0.1,0,0.3-0.1,0.3-0.1
			l0.1,0.4c-0.1,0.1-0.3,0.2-0.6,0.2C107.8,48.4,107.6,48.1,107.6,47.6z"/>
		<path fill="#FFFFFF" d="M109.5,46.7c0-0.9,0.7-1.7,1.6-1.7c1,0,1.5,0.7,1.5,1.7v0.1h-2.6c0,0.6,0.5,1.1,1.1,1.1
			c0.4,0,0.7-0.1,1-0.4l0.2,0.3c-0.3,0.3-0.7,0.5-1.3,0.5C110.2,48.4,109.5,47.7,109.5,46.7z M111.1,45.5c-0.7,0-1,0.6-1,1h2.1
			C112.1,46,111.8,45.5,111.1,45.5z"/>
		<path fill="#FFFFFF" d="M118.5,48.3v-2H116v2h-0.5v-4.4h0.5v1.9h2.6v-1.9h0.5v4.4H118.5z"/>
		<path fill="#FFFFFF" d="M122.4,48.3v-0.4c-0.3,0.3-0.6,0.4-1,0.4c-0.5,0-1.1-0.4-1.1-1c0-0.7,0.6-1,1.1-1c0.4,0,0.8,0.1,1,0.4
			v-0.6c0-0.4-0.3-0.7-0.8-0.7c-0.4,0-0.7,0.1-1,0.4l-0.2-0.3c0.3-0.4,0.7-0.5,1.3-0.5c0.7,0,1.2,0.3,1.2,1.1v2.2H122.4z
			 M122.4,47.6V47c-0.2-0.3-0.5-0.4-0.9-0.4c-0.5,0-0.8,0.3-0.8,0.7c0,0.4,0.3,0.7,0.8,0.7C121.9,48,122.2,47.9,122.4,47.6z"/>
		<path fill="#FFFFFF" d="M126.3,48.3v-2.1c0-0.6-0.3-0.7-0.7-0.7c-0.4,0-0.7,0.2-0.9,0.5v2.3h-0.5v-3.2h0.5v0.5
			c0.2-0.3,0.7-0.5,1.1-0.5c0.7,0,1,0.3,1,1v2.2H126.3z"/>
		<path fill="#FFFFFF" d="M130.3,48.3l-1.1-1.4l-0.5,0.5v0.9h-0.5v-4.4h0.5v2.9l1.7-1.7h0.6l-1.4,1.4l1.4,1.7H130.3z"/>
		<path fill="#FFFFFF" d="M131.6,47.9l0.2-0.4c0.2,0.2,0.6,0.5,1,0.5c0.5,0,0.8-0.2,0.8-0.5c0-0.8-2-0.3-2-1.5
			c0-0.5,0.4-0.9,1.2-0.9c0.5,0,0.9,0.2,1.2,0.5l-0.2,0.3c-0.2-0.2-0.5-0.4-0.9-0.4c-0.4,0-0.7,0.2-0.7,0.5c0,0.7,2,0.2,2,1.5
			c0,0.5-0.4,1-1.2,1C132.3,48.4,131.9,48.2,131.6,47.9z"/>
		<path fill="#FFFFFF" d="M137.1,46.1c0-1.3,1-2.3,2.2-2.3c0.8,0,1.3,0.4,1.7,0.9l-0.5,0.3c-0.2-0.4-0.7-0.6-1.2-0.6
			c-1,0-1.7,0.7-1.7,1.8c0,1,0.7,1.8,1.7,1.8c0.5,0,1-0.3,1.2-0.6l0.5,0.2c-0.4,0.5-0.9,0.9-1.7,0.9C138,48.4,137.1,47.5,137.1,46.1
			z"/>
		<path fill="#FFFFFF" d="M141.8,46.7c0-0.9,0.6-1.7,1.6-1.7c1,0,1.6,0.7,1.6,1.7c0,0.9-0.6,1.7-1.6,1.7
			C142.4,48.4,141.8,47.6,141.8,46.7z M144.4,46.7c0-0.6-0.4-1.2-1-1.2c-0.7,0-1,0.6-1,1.2c0,0.6,0.4,1.2,1,1.2
			C144,47.9,144.4,47.4,144.4,46.7z"/>
		<path fill="#FFFFFF" d="M149.8,48.3v-2.1c0-0.4-0.2-0.7-0.6-0.7c-0.3,0-0.7,0.2-0.8,0.5v2.3h-0.5v-2.1c0-0.4-0.2-0.7-0.6-0.7
			c-0.3,0-0.7,0.2-0.8,0.5v2.3H146v-3.2h0.5v0.5c0.1-0.2,0.6-0.5,1-0.5c0.5,0,0.8,0.3,0.8,0.6c0.2-0.3,0.6-0.6,1.1-0.6
			c0.6,0,0.9,0.3,0.9,1v2.3H149.8z"/>
		<path fill="#FFFFFF" d="M152.1,47.8v1.7h-0.5v-4.4h0.5v0.5c0.2-0.3,0.6-0.5,1.1-0.5c0.8,0,1.4,0.6,1.4,1.7c0,1-0.6,1.7-1.4,1.7
			C152.8,48.4,152.4,48.2,152.1,47.8z M154.1,46.7c0-0.7-0.4-1.2-1-1.2c-0.4,0-0.8,0.2-0.9,0.5v1.4c0.2,0.3,0.6,0.5,0.9,0.5
			C153.7,47.9,154.1,47.4,154.1,46.7z"/>
		<path fill="#FFFFFF" d="M157.7,48.3v-0.4c-0.3,0.3-0.6,0.4-1,0.4c-0.5,0-1.1-0.4-1.1-1c0-0.7,0.6-1,1.1-1c0.4,0,0.8,0.1,1,0.4
			v-0.6c0-0.4-0.3-0.7-0.8-0.7c-0.4,0-0.7,0.1-1,0.4l-0.2-0.3c0.3-0.4,0.7-0.5,1.3-0.5c0.7,0,1.2,0.3,1.2,1.1v2.2H157.7z
			 M157.7,47.6V47c-0.2-0.3-0.5-0.4-0.9-0.4c-0.5,0-0.8,0.3-0.8,0.7c0,0.4,0.3,0.7,0.8,0.7C157.2,48,157.5,47.9,157.7,47.6z"/>
		<path fill="#FFFFFF" d="M161.6,48.3v-2.1c0-0.6-0.3-0.7-0.7-0.7c-0.4,0-0.7,0.2-0.9,0.5v2.3h-0.5v-3.2h0.5v0.5
			c0.2-0.3,0.7-0.5,1.1-0.5c0.7,0,1,0.3,1,1v2.2H161.6z"/>
		<path fill="#FFFFFF" d="M163.3,49.1c0.1,0,0.2,0.1,0.3,0.1c0.2,0,0.4-0.1,0.5-0.3l0.2-0.5l-1.3-3.2h0.5l1,2.6l1.1-2.6h0.5
			l-1.6,3.8c-0.2,0.5-0.5,0.6-0.9,0.6c-0.1,0-0.3,0-0.4,0L163.3,49.1z"/>
	</g>
</g>
<g id="Layer_4">
</g>
</svg>
