<?xml version="1.0" encoding="UTF-8" standalone="no"?>
<svg width="174px" height="68px" viewBox="0 0 174 68" version="1.1" xmlns="http://www.w3.org/2000/svg" xmlns:xlink="http://www.w3.org/1999/xlink" xmlns:sketch="http://www.bohemiancoding.com/sketch/ns">
    <!-- Generator: Sketch 3.2.2 (9983) - http://www.bohemiancoding.com/sketch -->
    <title>Slice 1</title>
    <desc>Created with Sketch.</desc>
    <defs></defs>
    <g id="Page-1" stroke="none" stroke-width="1" fill="none" fill-rule="evenodd" sketch:type="MSPage">
        <g id="3QHH_Logo_PMS_teal" sketch:type="MSLayerGroup">
            <path d="M87.4,40.8 C86.3,41.9 84.6,42.5 82.8,42.5 L76.5,42.5 L76.5,25.1 L82.8,25.1 C84.6,25.1 86.3,25.6 87.4,26.8 C89.4,28.8 89.2,31.1 89.2,33.8 C89.2,36.3 89.3,38.9 87.4,40.8 L87.4,40.8 Z M85,29.2 C84.4,28.5 83.6,28.1 82.4,28.1 L79.9,28.1 L79.9,39.4 L82.4,39.4 C83.6,39.4 84.4,39 85,38.3 C85.6,37.5 85.7,36.3 85.7,33.6 C85.8,31.1 85.6,30 85,29.2 L85,29.2 Z" id="Shape" fill="#7EA8AD" sketch:type="MSShapeGroup"></path>
            <path d="M94.4,42.5 L94.4,25.1 L97.8,25.1 L97.8,42.5 L94.4,42.5 L94.4,42.5 Z" id="Shape" fill="#7EA8AD" sketch:type="MSShapeGroup"></path>
            <path d="M114.4,40.7 C113,42.1 111.5,42.7 109.5,42.7 C107.6,42.7 106.1,42.1 104.8,40.8 C104,40 103.6,39.1 103.4,38.2 C103.2,37.2 103.1,35.8 103.1,33.9 C103.1,32 103.2,30.5 103.4,29.6 C103.6,28.6 104.1,27.7 104.8,27 C106.1,25.7 107.6,25.1 109.5,25.1 C113.5,25.1 115.6,27.6 116,30.7 L112.6,30.7 C112.2,29 111.2,28.1 109.5,28.1 C108.6,28.1 107.9,28.4 107.3,29 C106.7,29.8 106.5,30.4 106.5,33.9 C106.5,37.3 106.7,38 107.3,38.8 C107.8,39.4 108.6,39.7 109.5,39.7 C110.5,39.7 111.3,39.4 111.9,38.7 C112.4,38.1 112.7,37.3 112.7,36.4 L112.7,35.7 L109.5,35.7 L109.5,32.9 L116.1,32.9 L116.1,35.5 C116.1,37.9 115.6,39.4 114.4,40.7 L114.4,40.7 Z" id="Shape" fill="#7EA8AD" sketch:type="MSShapeGroup"></path>
            <path d="M121.1,42.5 L121.1,25.1 L124.5,25.1 L124.5,42.5 L121.1,42.5 L121.1,42.5 Z" id="Shape" fill="#7EA8AD" sketch:type="MSShapeGroup"></path>
            <path d="M137,28.1 L137,42.5 L133.6,42.5 L133.6,28.1 L129.1,28.1 L129.1,25.1 L141.6,25.1 L141.6,28.1 L137,28.1 L137,28.1 Z" id="Shape" fill="#7EA8AD" sketch:type="MSShapeGroup"></path>
            <path d="M154.6,42.5 L153.6,39.4 L147.4,39.4 L146.3,42.5 L142.8,42.5 L149.1,25.1 L151.8,25.1 L158.2,42.5 L154.6,42.5 L154.6,42.5 Z M150.5,30.2 L148.3,36.5 L152.6,36.5 L150.5,30.2 L150.5,30.2 Z" id="Shape" fill="#7EA8AD" sketch:type="MSShapeGroup"></path>
            <path d="M162.1,42.5 L162.1,25.1 L165.5,25.1 L165.5,39.5 L173.4,39.5 L173.4,42.5 L162.1,42.5 L162.1,42.5 Z" id="Shape" fill="#7EA8AD" sketch:type="MSShapeGroup"></path>
            <path d="M33,0.7 C51.4,0.7 65.7,15 65.7,33.3 C65.7,41.7 62.6,49.5 57.7,55.3 L65.5,63.1 L61.6,67.2 L53.8,59.3 C48.2,64.1 41,66.8 33,66.8 C14.9,66.8 0.6,52 0.6,33.3 C0.6,15 14.9,0.7 33,0.7 L33,0.7 Z M33,60.8 C43.1,60.8 49.4,55 49.4,55 L45.3,50.8 L49.2,46.7 L53.2,51 C56.8,46.4 59.1,40 59.1,33.4 C59.1,18.3 47.7,6.8 33,6.8 C18.5,6.8 7.3,18.3 7.3,33.4 C7.2,48.7 18.5,60.8 33,60.8 L33,60.8 Z" id="Shape" fill="#4D868E" sketch:type="MSShapeGroup"></path>
            <path d="M24.7,42.8 C24.7,42.8 27.9,46.5 33,46.5 C36.5,46.5 39.5,44 39.5,40.5 C39.5,36.8 36.3,34.7 32.5,34.7 L30.2,34.7 L29.2,32.2 L36,23.7 C37,22.3 37.9,21.6 37.9,21.6 L37.9,21.5 C37.9,21.5 36.9,21.6 35.1,21.6 L28.8,21.6 C28.1,21.6 27.8,21.9 27.8,22.6 L27.8,24.7 L23.5,24.7 L23.5,20.6 C23.5,18.5 24.3,17.6 26.3,17.6 L43.5,17.6 L43.5,20.5 L35,30.9 C39.3,31.3 44.2,34.2 44.2,40.5 C44.2,46 39.8,50.9 33,50.9 C26.2,50.9 22.2,46.3 22.2,46.3 L24.7,42.8 L24.7,42.8 Z" id="Shape" fill="#F9BE00" sketch:type="MSShapeGroup"></path>
            <path d="M97.1,50.7 L96.7,49.7 L94.5,49.7 L94.1,50.7 L93.5,50.7 L95.3,46.2 L96,46.2 L97.8,50.7 L97.1,50.7 L97.1,50.7 Z M95.6,46.8 L94.6,49.2 L96.5,49.2 L95.6,46.8 L95.6,46.8 Z" id="Shape" fill="#7EA8AD" sketch:type="MSShapeGroup"></path>
            <path d="M103.9,50.7 L103.9,48.6 L101.3,48.6 L101.3,50.7 L100.7,50.7 L100.7,46.2 L101.3,46.2 L101.3,48.1 L103.9,48.1 L103.9,46.2 L104.5,46.2 L104.5,50.7 L103.9,50.7 L103.9,50.7 Z" id="Shape" fill="#7EA8AD" sketch:type="MSShapeGroup"></path>
            <path d="M107.9,50.7 L107.9,50.3 C107.6,50.6 107.3,50.8 106.8,50.8 C106.3,50.8 105.7,50.4 105.7,49.7 C105.7,49 106.3,48.6 106.8,48.6 C107.3,48.6 107.6,48.7 107.9,49 L107.9,48.4 C107.9,48 107.5,47.7 107.1,47.7 C106.7,47.7 106.4,47.8 106.1,48.1 L105.9,47.7 C106.3,47.3 106.7,47.2 107.2,47.2 C107.9,47.2 108.5,47.5 108.5,48.3 L108.5,50.5 L107.9,50.7 L107.9,50.7 Z M107.9,50 L107.9,49.4 C107.7,49.1 107.4,49 107,49 C106.5,49 106.2,49.3 106.2,49.7 C106.2,50.1 106.5,50.4 107,50.4 C107.3,50.4 107.7,50.3 107.9,50 L107.9,50 Z" id="Shape" fill="#7EA8AD" sketch:type="MSShapeGroup"></path>
            <path d="M109.7,50.7 L109.7,47.5 L110.2,47.5 L110.2,48 C110.5,47.7 110.8,47.4 111.3,47.4 L111.3,47.9 L111.1,47.9 C110.8,47.9 110.3,48.2 110.2,48.4 L110.2,50.7 L109.7,50.7 L109.7,50.7 Z" id="Shape" fill="#7EA8AD" sketch:type="MSShapeGroup"></path>
            <path d="M112.4,50 L112.4,47.9 L111.9,47.9 L111.9,47.5 L112.4,47.5 L112.4,46.6 L112.9,46.6 L112.9,47.5 L113.6,47.5 L113.6,47.9 L112.9,47.9 L112.9,49.9 C112.9,50.1 113,50.3 113.2,50.3 C113.4,50.3 113.5,50.2 113.5,50.1 L113.7,50.5 C113.6,50.6 113.4,50.7 113.1,50.7 C112.6,50.8 112.4,50.5 112.4,50 L112.4,50 Z" id="Shape" fill="#7EA8AD" sketch:type="MSShapeGroup"></path>
            <path d="M114.4,49.1 C114.4,48.2 115.1,47.4 116,47.4 C117,47.4 117.6,48.2 117.6,49.1 L117.6,49.2 L115,49.2 C115,49.8 115.4,50.3 116.2,50.3 C116.6,50.3 117,50.1 117.2,49.9 L117.4,50.2 C117.1,50.5 116.6,50.7 116.1,50.7 C115.1,50.8 114.4,50.1 114.4,49.1 L114.4,49.1 Z M116,47.8 C115.3,47.8 115,48.4 115,48.9 L117.1,48.9 C117.1,48.4 116.8,47.8 116,47.8 L116,47.8 Z" id="Shape" fill="#7EA8AD" sketch:type="MSShapeGroup"></path>
            <path d="M123.7,50.7 L123.7,48.6 L121.1,48.6 L121.1,50.7 L120.5,50.7 L120.5,46.2 L121.1,46.2 L121.1,48.1 L123.7,48.1 L123.7,46.2 L124.3,46.2 L124.3,50.7 L123.7,50.7 L123.7,50.7 Z" id="Shape" fill="#7EA8AD" sketch:type="MSShapeGroup"></path>
            <path d="M127.6,50.7 L127.6,50.3 C127.3,50.6 127,50.8 126.5,50.8 C126,50.8 125.4,50.4 125.4,49.7 C125.4,49 126,48.6 126.5,48.6 C126.9,48.6 127.3,48.7 127.6,49 L127.6,48.4 C127.6,48 127.2,47.7 126.8,47.7 C126.4,47.7 126.1,47.8 125.8,48.1 L125.6,47.7 C126,47.3 126.4,47.2 126.9,47.2 C127.6,47.2 128.2,47.5 128.2,48.3 L128.2,50.5 L127.6,50.7 L127.6,50.7 Z M127.6,50 L127.6,49.4 C127.4,49.1 127.1,49 126.7,49 C126.2,49 125.9,49.3 125.9,49.7 C125.9,50.1 126.2,50.4 126.7,50.4 C127.1,50.4 127.4,50.3 127.6,50 L127.6,50 Z" id="Shape" fill="#7EA8AD" sketch:type="MSShapeGroup"></path>
            <path d="M131.7,50.7 L131.7,48.6 C131.7,48 131.4,47.8 131,47.8 C130.6,47.8 130.2,48 130,48.3 L130,50.7 L129.5,50.7 L129.5,47.5 L130,47.5 L130,48 C130.2,47.7 130.7,47.5 131.2,47.5 C131.9,47.5 132.2,47.8 132.2,48.5 L132.2,50.8 L131.7,50.7 L131.7,50.7 Z" id="Shape" fill="#7EA8AD" sketch:type="MSShapeGroup"></path>
            <path d="M135.8,50.7 L134.6,49.2 L134.1,49.7 L134.1,50.6 L133.6,50.6 L133.6,46.1 L134.1,46.1 L134.1,49.1 L135.8,47.4 L136.4,47.4 L135,48.9 L136.4,50.7 L135.8,50.7 L135.8,50.7 Z" id="Shape" fill="#7EA8AD" sketch:type="MSShapeGroup"></path>
            <path d="M137.1,50.3 L137.3,49.9 C137.5,50.1 137.9,50.3 138.4,50.3 C138.9,50.3 139.2,50.1 139.2,49.7 C139.2,48.9 137.2,49.4 137.2,48.2 C137.2,47.7 137.6,47.3 138.4,47.3 C139,47.3 139.4,47.5 139.6,47.8 L139.4,48.2 C139.2,48 138.9,47.8 138.4,47.8 C138,47.8 137.7,48 137.7,48.3 C137.7,49 139.7,48.5 139.7,49.8 C139.7,50.3 139.3,50.8 138.4,50.8 C137.8,50.8 137.4,50.6 137.1,50.3 L137.1,50.3 Z" id="Shape" fill="#7EA8AD" sketch:type="MSShapeGroup"></path>
            <path d="M142.7,48.5 C142.7,47.1 143.7,46.2 145,46.2 C145.8,46.2 146.4,46.6 146.7,47.1 L146.3,47.4 C146,47 145.6,46.7 145.1,46.7 C144.1,46.7 143.4,47.5 143.4,48.5 C143.4,49.6 144.2,50.3 145.1,50.3 C145.6,50.3 146.1,50 146.3,49.6 L146.8,49.9 C146.4,50.4 145.9,50.8 145.1,50.8 C143.7,50.8 142.7,49.8 142.7,48.5 L142.7,48.5 Z" id="Shape" fill="#7EA8AD" sketch:type="MSShapeGroup"></path>
            <path d="M147.6,49.1 C147.6,48.2 148.2,47.4 149.2,47.4 C150.2,47.4 150.8,48.2 150.8,49.1 C150.8,50 150.2,50.8 149.2,50.8 C148.2,50.8 147.6,50 147.6,49.1 L147.6,49.1 Z M150.2,49.1 C150.2,48.4 149.8,47.8 149.1,47.8 C148.4,47.8 148,48.4 148,49.1 C148,49.8 148.4,50.4 149.1,50.4 C149.8,50.4 150.2,49.7 150.2,49.1 L150.2,49.1 Z" id="Shape" fill="#7EA8AD" sketch:type="MSShapeGroup"></path>
            <path d="M155.9,50.7 L155.9,48.5 C155.9,48.1 155.7,47.8 155.3,47.8 C155,47.8 154.6,48 154.4,48.3 L154.4,50.7 L153.9,50.7 L153.9,48.5 C153.9,48.1 153.7,47.8 153.3,47.8 C153,47.8 152.6,48 152.5,48.3 L152.5,50.7 L152,50.7 L152,47.5 L152.5,47.5 L152.5,48 C152.6,47.8 153.1,47.5 153.6,47.5 C154.1,47.5 154.4,47.8 154.5,48.1 C154.7,47.8 155.1,47.5 155.6,47.5 C156.2,47.5 156.5,47.8 156.5,48.5 L156.5,50.8 L155.9,50.7 L155.9,50.7 Z" id="Shape" fill="#7EA8AD" sketch:type="MSShapeGroup"></path>
            <path d="M158.2,50.2 L158.2,51.9 L157.7,51.9 L157.7,47.4 L158.2,47.4 L158.2,47.9 C158.4,47.6 158.8,47.3 159.3,47.3 C160.1,47.3 160.7,48 160.7,49 C160.7,50 160.1,50.7 159.3,50.7 C158.9,50.8 158.5,50.6 158.2,50.2 L158.2,50.2 Z M160.2,49.1 C160.2,48.4 159.8,47.8 159.1,47.8 C158.7,47.8 158.3,48 158.1,48.3 L158.1,49.8 C158.3,50.1 158.7,50.3 159.1,50.3 C159.8,50.3 160.2,49.8 160.2,49.1 L160.2,49.1 Z" id="Shape" fill="#7EA8AD" sketch:type="MSShapeGroup"></path>
            <path d="M163.9,50.7 L163.9,50.3 C163.6,50.6 163.3,50.8 162.8,50.8 C162.3,50.8 161.7,50.4 161.7,49.7 C161.7,49 162.3,48.6 162.8,48.6 C163.2,48.6 163.6,48.7 163.9,49 L163.9,48.4 C163.9,48 163.5,47.7 163.1,47.7 C162.7,47.7 162.4,47.8 162.1,48.1 L161.9,47.7 C162.3,47.3 162.7,47.2 163.2,47.2 C163.9,47.2 164.5,47.5 164.5,48.3 L164.5,50.5 L163.9,50.7 L163.9,50.7 Z M163.9,50 L163.9,49.4 C163.7,49.1 163.4,49 163,49 C162.5,49 162.2,49.3 162.2,49.7 C162.2,50.1 162.5,50.4 163,50.4 C163.4,50.4 163.7,50.3 163.9,50 L163.9,50 Z" id="Shape" fill="#7EA8AD" sketch:type="MSShapeGroup"></path>
            <path d="M168,50.7 L168,48.6 C168,48 167.7,47.8 167.3,47.8 C166.9,47.8 166.5,48 166.3,48.3 L166.3,50.7 L165.8,50.7 L165.8,47.5 L166.3,47.5 L166.3,48 C166.5,47.7 167,47.5 167.5,47.5 C168.2,47.5 168.5,47.8 168.5,48.5 L168.5,50.8 L168,50.7 L168,50.7 Z" id="Shape" fill="#7EA8AD" sketch:type="MSShapeGroup"></path>
            <path d="M169.7,51.5 C169.8,51.5 169.9,51.6 170,51.6 C170.2,51.6 170.4,51.5 170.5,51.3 L170.7,50.8 L169.3,47.5 L169.8,47.5 L170.9,50.2 L172,47.5 L172.5,47.5 L170.9,51.4 C170.7,51.9 170.4,52.1 169.9,52.1 C169.8,52.1 169.6,52.1 169.5,52 L169.7,51.5 L169.7,51.5 Z" id="Shape" fill="#7EA8AD" sketch:type="MSShapeGroup"></path>
        </g>
    </g>
</svg>